<?xml version="1.0" encoding="UTF-8"?>
<svg id="Layer_1" data-name="Layer 1" xmlns="http://www.w3.org/2000/svg" xmlns:xlink="http://www.w3.org/1999/xlink" viewBox="0 0 1030.78 343.21">
  <defs>
    <style>
      .cls-1 {
        fill: url(#linear-gradient);
      }

      .cls-2 {
        fill: url(#linear-gradient-3);
      }

      .cls-3 {
        fill: url(#linear-gradient-4);
      }

      .cls-4 {
        fill: url(#linear-gradient-2);
      }
    </style>
    <linearGradient id="linear-gradient" x1="291.01" y1="108.28" x2="28.22" y2="364.02" gradientTransform="translate(0 346) scale(1 -1)" gradientUnits="userSpaceOnUse">
      <stop offset="0" stop-color="#3da7df"/>
      <stop offset="1" stop-color="#28347b"/>
    </linearGradient>
    <linearGradient id="linear-gradient-2" x1="206.18" y1="21.11" x2="-56.61" y2="276.85" gradientTransform="translate(0 346) scale(1 -1)" gradientUnits="userSpaceOnUse">
      <stop offset="0" stop-color="#3da7df"/>
      <stop offset="1" stop-color="#28347b"/>
    </linearGradient>
    <linearGradient id="linear-gradient-3" x1="303.41" y1="121.02" x2="40.61" y2="376.76" gradientTransform="translate(0 346) scale(1 -1)" gradientUnits="userSpaceOnUse">
      <stop offset="0" stop-color="#3da7df"/>
      <stop offset="1" stop-color="#28347b"/>
    </linearGradient>
    <linearGradient id="linear-gradient-4" x1="218.57" y1="33.85" x2="-44.22" y2="289.58" gradientTransform="translate(0 346) scale(1 -1)" gradientUnits="userSpaceOnUse">
      <stop offset="0" stop-color="#3da7df"/>
      <stop offset="1" stop-color="#28347b"/>
    </linearGradient>
  </defs>
  <polygon class="cls-1" points="270.78 101.08 270.78 257.41 52.91 131.63 52.91 163.97 255.99 281.22 297.23 257.41 297.23 85.8 148.62 0 122.16 15.27 270.78 101.08"/>
  <polygon class="cls-4" points="52.91 226.86 201.53 312.67 229.54 296.49 52.91 194.52 52.91 226.86"/>
  <polygon class="cls-2" points="67.69 46.72 244.32 148.7 244.32 116.35 95.71 30.55 67.69 46.72"/>
  <polygon class="cls-3" points="26.45 242.14 26.45 85.8 244.32 211.59 244.32 179.25 41.24 61.99 0 85.8 0 257.41 148.62 343.21 175.07 327.94 26.45 242.14"/>
</svg>