<svg xmlns="http://www.w3.org/2000/svg" viewBox="0 0 4680 3120"><defs><style>.cls-1,.cls-13{fill:#fff;}.cls-1{opacity:0;}.cls-2{fill:#e3f0fc;}.cls-3{fill:#1543a3;}.cls-4{fill:#416ac4;}.cls-5{fill:#e8f6ff;}.cls-6{fill:#b5dbfe;}.cls-7{opacity:0.5;}.cls-8{fill:#e3f2ff;}.cls-9{fill:#4a7cd3;}.cls-10{fill:#1f77b2;}.cls-11{fill:#fc7900;}.cls-12{fill:#fe973a;}.cls-14{fill:#6c95dd;}.cls-15{fill:#88b8e7;}.cls-16{fill:#cfeaff;}.cls-17{fill:#345da5;}.cls-18{opacity:0.56;}.cls-19{fill:#dcedff;}.cls-20{fill:#151b3d;}.cls-21{fill:#c1dbf4;}.cls-22{fill:#acceea;}.cls-23{fill:#ffd7d7;}.cls-24{fill:#f7adad;}.cls-25{fill:#322f2f;}.cls-26{fill:#fff7f0;}.cls-27{fill:#26457d;}.cls-28{fill:#243760;}.cls-29{fill:#1a2850;}.cls-30{fill:#304975;}.cls-31{fill:#5e86c6;}.cls-32{fill:#e04870;}.cls-33{fill:#ffd4d4;}.cls-34{fill:#43000f;}.cls-35{fill:#ffa4a4;}.cls-36{fill:#dc4460;}.cls-37{fill:#c53044;}.cls-38{fill:#b2223b;}.cls-39{fill:#d22c45;}.cls-40{fill:#ed5475;}.cls-41{fill:#f48c37;}.cls-42{fill:#feb678;}.cls-43{fill:#f94153;}.cls-44{fill:#4eabc4;}.cls-45{fill:#70bbd6;}.cls-46{fill:#97d9e8;}.cls-47{fill:#f27c1c;}.cls-48{fill:#7db8ff;}.cls-49{fill:#fcaa3d;}.cls-50{fill:#4069c1;}</style></defs><title>04</title><g id="_4" data-name="4"><rect class="cls-1" width="4680" height="3120"/><path class="cls-2" d="M2420.14,915.9s-366.88-39-571.42,138.19S1519.23,1406,1411.19,1485.31s-141.65,294.06,14.41,440.78,486.39,316.62,941.87,283.58,749.14-384,670.18-765.31S2629.24,913.23,2420.14,915.9Z"/><ellipse class="cls-2" cx="1471.6" cy="1102.55" rx="319.38" ry="141.15" transform="translate(-325.64 1491.31) rotate(-49.05)"/><path d="M1996.74,758.83a4.57,4.57,0,0,1-4.57-4.58V736.17a4.57,4.57,0,0,1,9.14,0v18.08A4.57,4.57,0,0,1,1996.74,758.83Z"/><path d="M1996.74,706.59a4.56,4.56,0,0,1-4.57-4.57V681.31a49.75,49.75,0,0,1,2.17-14.58,4.57,4.57,0,1,1,8.74,2.68,40.73,40.73,0,0,0-1.77,11.9V702A4.56,4.56,0,0,1,1996.74,706.59Zm22.85-59.94a4.58,4.58,0,0,1-2.26-8.55,49.78,49.78,0,0,1,24.49-6.45h10.9a4.58,4.58,0,0,1,0,9.15h-10.9a40.48,40.48,0,0,0-20,5.26A4.6,4.6,0,0,1,2019.59,646.65Zm442.94-5.85h-34.15a4.58,4.58,0,0,1,0-9.15h34.15a4.58,4.58,0,1,1,0,9.15Zm-68.3,0h-34.15a4.58,4.58,0,0,1,0-9.15h34.15a4.58,4.58,0,0,1,0,9.15Zm-68.3,0h-34.15a4.58,4.58,0,1,1,0-9.15h34.15a4.58,4.58,0,0,1,0,9.15Zm-68.3,0h-34.16a4.58,4.58,0,0,1,0-9.15h34.16a4.58,4.58,0,0,1,0,9.15Zm-68.31,0h-34.15a4.58,4.58,0,0,1,0-9.15h34.15a4.58,4.58,0,1,1,0,9.15Zm-68.3,0h-34.15a4.58,4.58,0,0,1,0-9.15H2121a4.58,4.58,0,0,1,0,9.15Z"/><path d="M2514.81,640.8h-18.08a4.58,4.58,0,0,1,0-9.15h18.08a4.58,4.58,0,0,1,0,9.15Z"/><path d="M1669.69,1855.09h-36.16a4.58,4.58,0,0,1,0-9.15h36.16a4.58,4.58,0,1,1,0,9.15Zm-72.32,0H1561.2a4.58,4.58,0,0,1,0-9.15h36.17a4.58,4.58,0,0,1,0,9.15Zm-72.33,0h-36.17a4.58,4.58,0,0,1,0-9.15H1525a4.58,4.58,0,0,1,0,9.15Zm-72.33,0h-4.48a58,58,0,0,1-32.42-9.84,4.57,4.57,0,1,1,5.09-7.59,49,49,0,0,0,27.33,8.28h4.48a4.58,4.58,0,0,1,0,9.15Zm-55.7-37.41a4.56,4.56,0,0,1-4.35-3.18,58.07,58.07,0,0,1-2.75-17.73v-19.56a4.58,4.58,0,0,1,9.15,0v19.56a49,49,0,0,0,2.31,15,4.58,4.58,0,0,1-3,5.75A4.78,4.78,0,0,1,1397,1817.68Z"/><path d="M1938.3,765a4.57,4.57,0,0,1-4.58-4.57V724.27a4.58,4.58,0,1,1,9.15,0v36.16A4.57,4.57,0,0,1,1938.3,765Zm0-72.32a4.58,4.58,0,0,1-4.58-4.58V651.94a4.58,4.58,0,1,1,9.15,0V688.1A4.58,4.58,0,0,1,1938.3,692.68Zm0-72.33a4.58,4.58,0,0,1-4.58-4.57V579.61a4.58,4.58,0,0,1,9.15,0v36.17A4.58,4.58,0,0,1,1938.3,620.35Z"/><path class="cls-3" d="M2596.8,2475.12H1810.2c-25.22,0-47.55-20.44-49.9-45.66L1487.49,806.08c-2.35-25.21,16.19-45.65,41.4-45.65H2315.5c25.21,0,47.55,20.44,49.9,45.65l272.81,1623.38C2640.56,2454.68,2622,2475.12,2596.8,2475.12Z"/><path class="cls-4" d="M2676.4,2475.12H1889.79c-25.21,0-47.55-20.44-49.89-45.66L1567.08,806.08c-2.34-25.21,16.2-45.65,41.41-45.65H2395.1c25.21,0,47.55,20.44,49.89,45.65l272.82,1623.38C2720.15,2454.68,2701.61,2475.12,2676.4,2475.12Z"/><path class="cls-5" d="M2674.12,2450.42H1887.5a23.48,23.48,0,0,1-22.9-20.94l-41.83-248.94-41.33-245.83v0L1723,1586.54l-31.72-188.72-36.56-217.6-62.88-374.15a18.74,18.74,0,0,1,19-20.91H1636l72,428.19,35.91,213.7,31.4,186.79,57.64,343,41,244.31,27.09,161.16c1.09,11.57,11.34,21,22.91,21h761.37l7.76,46.22A18.77,18.77,0,0,1,2674.12,2450.42Z"/><path class="cls-6" d="M2685.37,2383.26H1924c-11.57,0-21.82-9.4-22.91-21L1874,2201.13l-41-244.31-57.64-343-31.4-186.79L1708,1213.35l-72-428.19h180.58l26.77,36.43a51.57,51.57,0,0,0,26.24,18.78l.15.06a47.53,47.53,0,0,0,13.86,2.11h301.27c15.53,0,29.21-7.91,36.35-20.95l5-9.22,14.94-27.21h156.15a23.48,23.48,0,0,1,22.93,20.91L2439,917.2v0l42.85,255,24.75,147.33,73.11,435L2605,1904.89v0l22.15,131.84,0,.14,3.86,23,43.41,258.36Z"/><g class="cls-7"><path class="cls-8" d="M2579.72,1754.57,1708,1213.35l-53.34-33.13-62.88-374.15a18.74,18.74,0,0,1,19-20.91h131l764.86,534.43Z"/><path class="cls-8" d="M2674.12,2450.42H2494.28l-167.1-67.16L1874,2201.13l-51.23-20.59-41.33-245.83,51.52,22.11,841.48,361.47,10.93,65,7.76,46.22A18.77,18.77,0,0,1,2674.12,2450.42Z"/><path class="cls-8" d="M2481.86,1172.26,2046.52,842.54h138.39c15.53,0,29.21-7.91,36.35-20.95l5-9.22L2439,917.2v0Z"/></g><path class="cls-4" d="M1605.61,1354.68h-12a35.1,35.1,0,0,1-10.07-1.47,38.81,38.81,0,0,1-27.15-30.23l-33.83-198.32c-3.4-20,10.77-37,30.81-37H1562a14,14,0,0,1,13.5,11.51l4.89,28.7,36.41,213.41A11.21,11.21,0,0,1,1605.61,1354.68Z"/><path class="cls-9" d="M1605.61,1354.68h-12a35.1,35.1,0,0,1-10.07-1.47l-32.13-188.36c-3.28-19.37,9.93-36,29-37l36.41,213.41A11.21,11.21,0,0,1,1605.61,1354.68Z"/><path class="cls-10" d="M2260.83,918h105.6c5,0,8.3-4.09,7.28-9.13h0a11.73,11.73,0,0,0-11-9.12h-105.6c-5,0-8.3,4.08-7.28,9.12h0A11.73,11.73,0,0,0,2260.83,918Z"/><path class="cls-10" d="M2268.29,954.91h105.6c5,0,8.3-4.09,7.28-9.13h0a11.74,11.74,0,0,0-11-9.13H2264.6c-5,0-8.3,4.09-7.28,9.13h0A11.74,11.74,0,0,0,2268.29,954.91Z"/><path class="cls-10" d="M2275.75,991.79h105.6c5,0,8.3-4.08,7.28-9.12h0a11.74,11.74,0,0,0-11-9.13h-105.6c-5,0-8.3,4.09-7.28,9.13h0A11.73,11.73,0,0,0,2275.75,991.79Z"/><path class="cls-11" d="M1694.34,946.83c4.48,31.37,25.24,58.81,52.51,73.74a94.71,94.71,0,0,0,45.51,12c16,0,30.35-4.37,42.06-12,23-14.93,35.94-42.37,31.46-73.74-6.76-47.38-50.64-85.76-98-85.76S1687.58,899.45,1694.34,946.83Z"/><path class="cls-12" d="M1705.36,944.73c4.48,31.37,25.24,58.81,52.51,73.74a94.74,94.74,0,0,0,45.51,12c16,0,30.35-4.37,42.06-12,23-14.93,35.94-42.37,31.46-73.74-6.76-47.38-50.64-85.76-98-85.76S1698.6,897.35,1705.36,944.73Z"/><ellipse class="cls-13" cx="1788.3" cy="924.83" rx="32.3" ry="37.25" transform="translate(-107.21 1603.31) rotate(-47.04)"/><path class="cls-13" d="M1757.87,1018.47a94.74,94.74,0,0,0,45.51,12c16,0,30.35-4.37,42.06-12-5.29-21.16-19-56.17-51.88-56.84C1760.83,962.3,1757.12,997.31,1757.87,1018.47Z"/><path class="cls-14" d="M2077.13,816.45H1933.8A10.49,10.49,0,0,1,1923.32,806v-3.62a10.49,10.49,0,0,1,10.48-10.47h143.33a10.49,10.49,0,0,1,10.48,10.47V806A10.49,10.49,0,0,1,2077.13,816.45ZM1933.8,794.21a8.17,8.17,0,0,0-8.16,8.15V806a8.17,8.17,0,0,0,8.16,8.15h143.33a8.17,8.17,0,0,0,8.16-8.15v-3.62a8.17,8.17,0,0,0-8.16-8.15Z"/><path class="cls-14" d="M2129,816.45h-16.35A10.49,10.49,0,0,1,2102.22,806v-3.62a10.49,10.49,0,0,1,10.47-10.47H2129a10.49,10.49,0,0,1,10.48,10.47V806A10.49,10.49,0,0,1,2129,816.45Zm-16.35-22.24a8.16,8.16,0,0,0-8.15,8.15V806a8.16,8.16,0,0,0,8.15,8.15H2129a8.17,8.17,0,0,0,8.16-8.15v-3.62a8.17,8.17,0,0,0-8.16-8.15Z"/><path class="cls-15" d="M2627.14,2036.76,2381.32,852.22a44.9,44.9,0,0,0-44-35.78h-26.88a73.61,73.61,0,0,0-62.48,34.7h0a33,33,0,0,1-27.56,15.59c-34,.53-111.73,1.36-194.59-.32-107.53-2.23-153.31-24.58-156.06-26a47.53,47.53,0,0,0,13.86,2.11h301.27c15.53,0,29.21-7.91,36.35-20.95l20-36.43h156.15a23.48,23.48,0,0,1,22.93,20.91Z"/><ellipse class="cls-16" cx="2137.79" cy="1477.9" rx="189.73" ry="281.92" transform="translate(-335.24 678.86) rotate(-16.75)"/><path class="cls-17" d="M1982.73,1423.86c0-5.57.5-11.09,1-16.56a304.93,304.93,0,0,1,6.39-40.07q.69-3,1.44-6c.12-.48.25-1,.37-1.44.06-.25.13-.49.19-.73.2-.77-.44,1.63-.14.53s.57-2.13.87-3.2q1.76-6.27,3.82-12.41a204,204,0,0,1,10-24.63c2-4.12,4.18-8.14,6.52-12.06a15.25,15.25,0,0,1,.84-1.4c-1.16,1.55,0,0,.23-.36q1-1.53,2-3,1.86-2.79,3.85-5.51a126.22,126.22,0,0,1,8.63-10.54c1.56-1.7,3.16-3.35,4.82-5,.79-.76,1.59-1.52,2.4-2.26a16.21,16.21,0,0,1,1.23-1.11c-1.63,1.2.25-.2.61-.5a104.07,104.07,0,0,1,11.29-8.34q2.94-1.86,6-3.53c1.06-.57,2.13-1.13,3.21-1.67l1.56-.75.63-.3.63-.29c-.86.39-1.07.49-.64.3a114.68,114.68,0,0,1,14-5c2.51-.7,5.07-1.31,7.66-1.83q1.88-.37,3.78-.69l1.93-.3.32,0c-1.17.18.52-.06.73-.09a134.77,134.77,0,0,1,17.7-.92q4.34,0,8.7.37c1.39.1,2.77.22,4.15.37l2.05.22c.34,0,.68.11,1,.13-1.93-.11-.63-.08-.14,0a132.37,132.37,0,0,1,16.39,3.36c2.6.71,5.2,1.5,7.77,2.37q1.82.61,3.6,1.29l1.78.67c1.27.49-1.27-.52-.41-.16l1.22.5a134.66,134.66,0,0,1,14,6.71c2.2,1.21,4.38,2.49,6.52,3.82,1,.65,2.06,1.3,3.09,2l1.52,1a5.08,5.08,0,0,1,.9.61c-1.1-1.23-.87-.6-.27-.18a173.84,173.84,0,0,1,23,19.48c.83.83,1.65,1.68,2.47,2.53l1.22,1.28a3.48,3.48,0,0,0,.48.52l-.5-.54.36.39c1.66,1.8,3.29,3.64,4.88,5.5q4.66,5.45,9,11.16a255.5,255.5,0,0,1,15.34,23c.27.45.54.9.8,1.35l.32.54c.64,1.09-.9-1.56-.27-.46.54.94,1.08,1.88,1.61,2.82q1.52,2.71,3,5.44,2.85,5.34,5.48,10.77,4.59,9.43,8.49,19.08c3,7.46,5.77,15,8.06,22.59.37,1.22-.66-2.27-.26-.9,0,.08.05.17.07.26.93,3.36,3.75,6.65,7.5,6.48,3.15-.14,6.44-2.87,5.45-6.48-1.64-5.93-3.68-11.83-5.87-17.67a309.92,309.92,0,0,0-17.48-38.49,260,260,0,0,0-31.94-47.09c-14-16.1-30.34-30.31-49-40.43a142.24,142.24,0,0,0-66.55-17.14c-23-.19-44.88,5.26-63.06,16.74-16.62,10.5-29.48,25.33-39.55,42-9.21,15.23-15.89,32.12-20.81,49.64a305.54,305.54,0,0,0-9.09,45.61c-1,8-1.7,16-1.91,24.11,0,.37,0,.74,0,1.11,0,3.33,2,7.13,5.78,8,3.24.71,7.21-1,7.24-4.52Z"/><path class="cls-17" d="M1976,1459.21c12.63,2,22.24-7,27.73-16.22,5.86-9.81,8.1-21.67,9.69-33.35,1-7.45,2-14.91,3.13-22.33,1.31-8.49,2.87-16.92,4.86-25.19.24-1,.49-2,.74-3,.12-.45.67-2.43.12-.47.16-.56.3-1.12.45-1.68.61-2.2,1.24-4.38,1.92-6.55,1.35-4.32,2.85-8.58,4.54-12.75a130.4,130.4,0,0,1,5.72-12.27c.52-1,1.06-2,1.61-2.93.26-.45.52-.91.79-1.36s1.46-2.24.37-.64c1.25-1.84,2.4-3.74,3.69-5.55a88.68,88.68,0,0,1,8.63-10.4c.78-.81,1.58-1.6,2.39-2.37.34-.33.69-.65,1-1l.79-.72c.84-.76-1,.86-.08.07,1.74-1.47,3.51-2.9,5.36-4.24a80.35,80.35,0,0,1,12.31-7.31l.87-.41c.5-.23.7,0-.39.18a9.16,9.16,0,0,0,1.79-.78c1.21-.5,2.44-1,3.68-1.44,2.42-.88,4.9-1.66,7.41-2.34s5.27-1.29,8-1.78l2.19-.37.89-.14.5-.07,1.43-.18c.84-.1,1.69-.19,2.54-.27a116.54,116.54,0,0,1,17.85-.35c1.26.08,2.53.18,3.8.3l2.08.23c.27,0,.56.09.83.1-1.91-.09-.6-.08-.12,0q3.93.57,7.86,1.47t7.56,2.06c1.14.36,2.27.75,3.4,1.15l1.67.61c.31.12.62.27.93.36-.76-.23-1.21-.49-.18-.07a106.5,106.5,0,0,1,13.38,6.61c2.2,1.29,4.35,2.66,6.48,4.08,1.27.85-1.16-.81.3.22l1.6,1.15c1.06.77,2.11,1.56,3.14,2.36a139.84,139.84,0,0,1,11.33,9.88c.9.88,1.8,1.76,2.68,2.66l1.25,1.29c.24.25,1.85,2,1,1.09l.75.81,1.33,1.49c.89,1,1.76,2,2.63,3a209.94,209.94,0,0,1,18.11,25.09c.64,1,1.27,2,1.89,3.08l1,1.72c.29.48,1.39,2.45.31.53,1.24,2.19,2.5,4.38,3.7,6.59q3.66,6.73,6.95,13.6c4.13,8.6,7.87,17.34,11.29,26.16q4.51,11.63,8.3,23.43,1.59,4.93,3.07,9.9c.22.71.43,1.43.64,2.14l-.1-.34c.12.41.24.82.35,1.23.93,3.22,1.84,6.44,2.82,9.65,3.92,12.79,8.79,25.68,16.39,37.35,5.06,7.75,11.75,14.72,19.9,19.27a52.89,52.89,0,0,0,10.73,4.42c3.4,1,7-1.19,7.25-4.52a7.92,7.92,0,0,0-5.78-8c-.81-.24-1.61-.49-2.41-.78l-1.13-.41c-1-.37,1.53.64.78.31l-.75-.31a42.64,42.64,0,0,1-4.77-2.41c-.72-.43-1.42-.95-2.15-1.37,2,1.14.72.5.17.09s-.87-.65-1.3-1a51.91,51.91,0,0,1-4.39-4c-1.26-1.27,1.06,1.22-.14-.15-.34-.39-.68-.77-1-1.16-.77-.92-1.51-1.85-2.23-2.8a74,74,0,0,1-4.24-6.36c-.14-.23-.27-.51-.43-.72,1,1.27.5.87.25.43l-1.06-1.92q-1.1-2-2.1-4.12c-1.41-2.92-2.7-5.89-3.9-8.88-1.41-3.52-2.69-7.08-3.88-10.65-.65-1.93-1.26-3.86-1.86-5.8-.26-.85-.52-1.71-.77-2.56.33,1.1-.09-.33-.17-.59-.13-.48-.27-1-.4-1.43q-1.47-5.16-3-10.33-3.33-11-7.24-21.84a348.52,348.52,0,0,0-23.42-52.15c-10.4-18.58-22.82-36.39-38.65-51.34-15.67-14.8-34.79-26-55-30.5-23.81-5.33-48.6-2.64-68.77,6.56-17.95,8.2-31.43,22.36-40.95,39.17-8.9,15.71-14.13,33.63-17.8,51.81-1.63,8.06-2.91,16.22-4.06,24.43s-2,16.85-3.69,25c-.16.73-.32,1.47-.49,2.2-.1.45-.21.89-.32,1.33s-.39,1.47-.06.25c-.44,1.6-.91,3.19-1.44,4.75a58.26,58.26,0,0,1-3.13,7.51c-.49,1-1.21,1.91-1.61,2.93.67-1.69,0,0-.31.43s-.62.9-.94,1.33a32.78,32.78,0,0,1-3.75,4.23c-1.14,1.09.74-.58.09-.07-.32.25-.63.52-1,.77a22.3,22.3,0,0,1-1.88,1.29c-.54.33-1.09.64-1.65.92s-1.79.56.38-.15c-.29.09-.57.24-.86.35a20.41,20.41,0,0,1-3,.88c-.89.18-2.14.16.29,0-.38,0-.76.08-1.14.1-1,.06-3.82-.35-.35.19-3.42-.53-7,.85-7.25,4.52-.22,3.1,2.11,7.39,5.78,8Z"/><path class="cls-17" d="M2086,1307.24c.83-.44,1.67-.72-.26.09,1.07-.45,2.14-.9,3.25-1.29a64.1,64.1,0,0,1,11.71-2.92,4.36,4.36,0,0,0,1-.14c-1.29.58-1.16.14-.36,0l2.07-.22c1.46-.14,2.94-.23,4.42-.28a78,78,0,0,1,9.88.28,9.6,9.6,0,0,1,2.67.29c-.12,0-1.63-.23-.4,0l1.39.21c2.06.33,4.13.75,6.19,1.24a94.51,94.51,0,0,1,11.73,3.65c1.78.67-1.29-.57.48.19l2.15.92c1.29.57,2.57,1.16,3.83,1.78,2.47,1.21,4.91,2.52,7.3,3.92a108.63,108.63,0,0,1,14.93,10.45c2.85,2.31,7.15,2.64,9.16,0a6.76,6.76,0,0,0-1.45-9.15c-16.31-13.21-35.32-23.13-55.15-25.81-12.36-1.68-24.73-1-35.83,2.72a45.55,45.55,0,0,0-7,2.89c-2.81,1.49-3.16,6.07-.92,8.86,2.5,3.12,6.21,3.92,9.22,2.32Z"/><path class="cls-17" d="M2043.83,1358.27l.3-.5c.29-.52-1.08,1.71-.38.62.2-.3.39-.6.58-.9,1.15-1.74,2.38-3.41,3.67-5a85.36,85.36,0,0,1,6.18-7,31,31,0,0,1,4-3.74c-1,.68-.22.2.25-.2s.75-.63,1.13-.94c.78-.64,1.57-1.26,2.37-1.87a75,75,0,0,1,11.24-7l1.55-.76.68-.32c.81-.4-.92.38-.07,0,1.1-.46,2.2-.93,3.32-1.36a70.8,70.8,0,0,1,7.11-2.25c2.59-.68,5.22-1.24,7.89-1.7l2-.34c.29,0,1.61-.22.34,0s.05,0,.34,0c1.45-.18,2.91-.34,4.38-.45a95.47,95.47,0,0,1,18,.24c.67.07,3.28.54.89.09.77.15,1.55.22,2.33.35,1.63.26,3.25.57,4.88.92a94.19,94.19,0,0,1,9.58,2.57c1.69.54,3.36,1.14,5,1.77,1,.36.47.28-.25-.11a10.71,10.71,0,0,0,1.22.49c.88.37,1.76.74,2.63,1.13q5,2.25,9.87,5,2.61,1.49,5.15,3.11l2.31,1.52a6.33,6.33,0,0,0,.71.48s-1.2-.84-.58-.39c.46.34.95.66,1.42,1,3.49,2.51,6.87,5.2,10.12,8,3.45,3,6.75,6.17,9.91,9.46.41.42.81.87,1.23,1.29s-.31-.34-.34-.37c.23.26.47.51.7.76.83.91,1.65,1.82,2.46,2.74,1.73,2,3.41,4,5.06,6a233.17,233.17,0,0,1,19.25,28l.5.85c.58,1-.46-.82.1.16l1,1.74q1.26,2.22,2.47,4.44c1.72,3.15,5.3,5.68,8.68,4.52a5.65,5.65,0,0,0,3.26-8c-11.1-20.34-24.43-39.91-41.6-56.29A132.5,132.5,0,0,0,2143,1318a102.34,102.34,0,0,0-40.19-6.71c-16,.59-31.3,4.62-44,12.69a87.28,87.28,0,0,0-18.55,16,63.52,63.52,0,0,0-8.29,11.3c-.1.18-.22.36-.32.54-1.55,2.75.6,7.33,3.72,8.85,3.64,1.77,6.84.62,8.49-2.32Z"/><path class="cls-17" d="M2047,1390.17c.48-1,1-2,1.57-3,.28-.49.56-1,.85-1.47l.49-.83c.55-.92-1,1.58-.07.13s1.85-2.86,2.83-4.25a98.65,98.65,0,0,1,8-9.92q2.55-2.79,5.32-5.37l1.4-1.28c.89-.82-1.11.94-.19.16.25-.2.49-.42.74-.63q1.64-1.38,3.34-2.69c4.6-3.51,9.62-6.13,14.74-8.89-1.73.93.49-.2.95-.39.69-.28,1.39-.56,2.1-.83q2.32-.87,4.73-1.59c1.51-.44,3-.84,4.6-1.19.78-.18,1.57-.34,2.37-.49s2.26-.07,2.84-.47l-.86.12.83-.11,1.26-.14c.84-.09,1.7-.16,2.55-.22,1.89-.13,3.8-.18,5.72-.16s3.66.1,5.5.25c.79.06,1.58.14,2.36.22.48,0,1,.08,1.44.17-1.93-.36.28.05.66.11a96.2,96.2,0,0,1,12.67,2.91c1.79.54,3.57,1.12,5.34,1.77l1,.36c.71.26,1.07.77-.37-.16a16.14,16.14,0,0,0,2.23.93,83.53,83.53,0,0,1,7.71,3.81c1.2.68,2.39,1.39,3.57,2.12.59.37,1.17.74,1.75,1.13l.87.58c1,.65-1.51-1.08,0,0a100.63,100.63,0,0,1,13.26,11.32c.51.52,1,1,1.52,1.58,1,1-1.14-1.28-.22-.23.24.27.5.54.74.82q1.62,1.8,3.15,3.67c2,2.45,3.93,5,5.74,7.58s3.5,5.23,5.1,7.91c.21.35.4.7.61,1-1.12-1.76-.32-.56-.09-.16.4.7.79,1.41,1.18,2.12.85,1.55,1.68,3.12,2.47,4.71a170.89,170.89,0,0,1,8.33,19.65c.59,1.68,1.17,3.37,1.71,5.07.28.86.55,1.72.82,2.58l.39,1.3c.09.29.18.58.26.88l-.12-.41q1.54,5.4,2.82,10.81a264.54,264.54,0,0,1,6.45,49.47c0,1.07.08,2.15.12,3.23,0,.54,0,1.08,0,1.62,0-1.62,0,.21,0,.45q.06,3.58,0,7.14,0,7-.35,14-.67,14.71-2.51,29.16-1.87,15.09-4.87,29.85-1.57,7.88-3.44,15.65c-1.34,5.62-2.42,9.78-3.87,15s-3,10.36-4.61,15.49a7.46,7.46,0,0,0,3.73,8.86c3.11,1.52,7.46.94,8.49-2.32a460.78,460.78,0,0,0,15.57-64.93,368.24,368.24,0,0,0,4.89-59,292.22,292.22,0,0,0-4.64-53.6,210.76,210.76,0,0,0-13.6-45.46,143.85,143.85,0,0,0-21.61-35.55,106,106,0,0,0-29.82-24.82,96.24,96.24,0,0,0-45.09-11.64,77.53,77.53,0,0,0-40.32,11.29,93.08,93.08,0,0,0-24.38,21.81,95.83,95.83,0,0,0-10.46,16q-.21.39-.39.78c-1.35,2.88.45,7.26,3.72,8.86,3.45,1.68,7,.74,8.49-2.32Z"/><path class="cls-17" d="M2035.54,1407.82c-.39,14.07,1.23,28.68,3.32,43,1.18,8.07,2.65,16.15,4.36,24.21.71,3.38,3.89,6.64,7.5,6.48,3.32-.15,6.21-2.86,5.44-6.48a370.74,370.74,0,0,1-6.21-39.13q-.7-6.78-1.09-13.55c-.1-1.69-.17-3.39-.23-5.08,0-.65,0-1.31-.06-2,.09,2.66,0,.31,0-.37,0-1.21,0-2.43,0-3.64.09-3.32-2-7.14-5.78-8-3.29-.72-7.15,1-7.25,4.53Z"/><path class="cls-17" d="M2016,1448.08a109.36,109.36,0,0,1,3.31,23.28c0,.84.08,1.69.11,2.53,0,1.49,0-1.6,0-.1,0,.5,0,1,0,1.49,0,1.89,0,3.77-.1,5.64a108.5,108.5,0,0,1-1.12,11.74q-.48,3.1-1.15,6.15c-.22,1-.47,2-.72,3-.19.79.34-1.21.11-.42-.07.25-.13.5-.2.75-.16.56-.33,1.13-.5,1.69a76.39,76.39,0,0,1-4.87,12.23q-.82,1.65-1.74,3.24c-.22.38-1.21,2.31-.47.82a14.66,14.66,0,0,1-.9,1.41,66.36,66.36,0,0,1-4.82,6.45,64.61,64.61,0,0,1-5.49,5.73l-.67.61c-1.14,1,1-.8-.22.19l-1.42,1.18q-1.85,1.47-3.78,2.83a6.13,6.13,0,0,0-.92,8.85c2.3,2.87,6.47,4.26,9.23,2.33,16.53-11.63,26.83-29.13,30.84-49.51,2.73-13.86,2.58-28.86.18-43.55a83,83,0,0,0-1.76-8.57c-.91-3.36-3.75-6.65-7.49-6.48-3.16.14-6.44,2.87-5.45,6.48Z"/><path class="cls-17" d="M1998.51,1469.49a19.77,19.77,0,0,1,.3,2.28c0,.41.06.81.08,1.22,0,.23,0,.46,0,.69s0-2,0-.64-.05,2.38-.16,3.56a42.18,42.18,0,0,1-.57,4.25c-.15.79-.32,1.56-.5,2.34-.32,1.35.3-1,0,0-.12.41-.24.83-.37,1.25a45.94,45.94,0,0,1-2.08,5.42c-.4.86-.81,1.7-1.26,2.53-.24.47-.5.93-.76,1.38-.12.2-.24.4-.35.6-.35.62.57-.87-.06.09a56,56,0,0,1-4.7,6.24c-1,1.12-2,2.19-3,3.23-.55.54-1.12,1.07-1.69,1.6s-.07.07,0,0c-.46.41-.93.8-1.4,1.19a6.18,6.18,0,0,0-.92,8.85c2.16,2.7,6.64,4.47,9.22,2.33,13.14-10.9,22.59-26.32,21.55-45.1a22.09,22.09,0,0,0-.38-3.31c-.71-3.38-3.9-6.64-7.49-6.48-3.34.15-6.22,2.85-5.45,6.48Z"/><path class="cls-17" d="M2047.05,1497.74c-.27,1.75-.65,3.47-1,5.18-.22.91-.45,1.82-.68,2.73s.47-1.74.15-.57l-.18.67-.51,1.77c-.72,2.49-1.53,4.94-2.4,7.37a116.53,116.53,0,0,1-7.88,17.34c-.41.72-.82,1.44-1.24,2.15-.14.24-.88,1.43-.4.67l-.53.83q-1.44,2.25-3,4.43a83.83,83.83,0,0,1-7.18,8.67,53.26,53.26,0,0,1-4.71,4.55c.13-.11,1-.85.18-.17l-.65.56c-.44.37-.89.73-1.34,1.09-.85.67-1.72,1.33-2.61,2a65.6,65.6,0,0,1-5.78,3.74c-1,.6-2.11,1.18-3.2,1.73l-1.45.71c-.18.09-1.09.52-.33.17s-.52.22-.56.24c-2.92,1.27-5,4.36-3.26,8,1.45,3,5.53,5.89,8.68,4.52,16.32-7.09,28.61-19.13,37.66-34a121.69,121.69,0,0,0,13.84-34c.57-2.26,1.11-4.54,1.47-6.88.49-3.23-2.33-7.2-5.78-8-3.64-.8-6.73,1.06-7.25,4.52Z"/><path class="cls-17" d="M2020.48,1598.69a66.18,66.18,0,0,0,17.23-10.55,98,98,0,0,0,28.54-38.26,121.66,121.66,0,0,0,8.42-32.62c1.63-13.66.75-27.72.09-41.77-.3-6.48-.61-13-.86-19.45-.12-2.92-.22-5.85-.3-8.77,0-.78-.06-1.57-.07-2.35,0,1.47,0,.06,0-.6,0-1.51-.05-3-.07-4.53a196.71,196.71,0,0,1,1.38-29.12q.42-3.06,1-6.05c.18-.88.38-1.75.59-2.62.06-.25.13-.5.19-.75.18-.78-.46,1.6-.14.51.15-.48.28-1,.42-1.44a46.33,46.33,0,0,1,4-9.59c.14-.24.9-1.51.27-.48s.15-.22.31-.45c.45-.69.93-1.36,1.44-2a31.28,31.28,0,0,1,3.19-3.52l.37-.35c.73-.71-1.05.87-.48.41.31-.24.6-.5.9-.74.64-.51,1.31-1,2-1.47a38.36,38.36,0,0,1,4.32-2.48c1.34-.68-1.26.52-.05,0l1.19-.49c.86-.34,1.73-.65,2.62-.94a50,50,0,0,1,5.6-1.44c1-.2,2-.35,3-.52s-.6.08-.66.08a8.62,8.62,0,0,0,.87-.11l1.95-.21c2.26-.21,4.55-.33,6.85-.38,1.78,0,3.56,0,5.36.09l2,.15,1.07.12.47,0c1.07.12-1.82-.27-.8-.1a71.77,71.77,0,0,1,8.75,1.93c1.49.45,3,1,4.44,1.53.94.34-1.83-.76-.49-.19l1.16.49q1,.45,2.07.93a70.38,70.38,0,0,1,8.37,4.7l1.1.74c.85.56-1.59-1.13-.37-.26.73.53,1.46,1.06,2.18,1.6q2,1.54,3.95,3.21t3.85,3.54c.62.6,1.22,1.22,1.82,1.84.27.28.53.57.81.84-1.83-1.79-.34-.36.07.09a101,101,0,0,1,7,8.75q1.7,2.38,3.27,4.85c.52.82,1,1.65,1.53,2.48.22.37.42.77.66,1.13-1.38-2-.13-.23.17.31a134.12,134.12,0,0,1,10.39,23.93c.35,1.08.69,2.16,1,3.25.1.3.18.61.28.91,0-.08-.49-1.7-.18-.61.17.62.35,1.24.52,1.86q1,3.63,1.83,7.28c1.14,5,2.06,10.06,2.76,15.09.77,5.45,1.3,10.89,1.63,16.3.08,1.31.15,2.61.21,3.92,0,.7.06,1.4.08,2.09l0,.94c0,.81.06,1.22,0,.17.15,3.05.07,6.11,0,9.14a282.18,282.18,0,0,1-3.36,38.53q-1.64,10.61-3.93,21-1.2,5.48-2.57,10.91-.33,1.35-.69,2.7c-.1.4-.2.8-.31,1.2.23-.87,0,.14-.07.27-.55,2-1.1,4.06-1.68,6.09-2.16,7.62-4.55,15.15-7.1,22.59a7.43,7.43,0,0,0,3.72,8.86c3.19,1.55,7.38.91,8.49-2.32,9.65-28.13,17-57.58,19.61-88.21,1.92-22.66,1.38-46.31-4-69.65-4.08-17.72-10.85-35.49-21.94-51.16-8.61-12.16-20.13-23-33.51-29.62-14.71-7.23-29.85-8.36-44.51-6.08-7.75,1.2-15.33,3.9-21.18,8.58a41.11,41.11,0,0,0-12.8,18c-6.65,17.85-5.73,39-5.11,58.72.41,13.3,1.14,26.64,1.73,40,0,.78.08,1.56.11,2.34,0,.48,0,1,0,1.44s0,1.63,0,.28c0,1.77,0,3.54,0,5.3q-.06,4.93-.44,9.81a129.94,129.94,0,0,1-2.69,18.06c-.29,1.3-.54,2.64-.94,3.89.42-1.3,0,0-.15.54l-.66,2.26c-.74,2.43-1.56,4.83-2.46,7.18a99.18,99.18,0,0,1-6.05,13c-.48.86-1,1.71-1.49,2.57-.7,1.2.68-1.08-.18.29-.3.48-.6,1-.91,1.42q-1.68,2.6-3.54,5a90,90,0,0,1-7.19,8.42c-1.14,1.18-2.32,2.33-3.52,3.44l-.94.86c-1,.89.89-.77.22-.19s-1.21,1-1.83,1.54c-2,1.68-4.15,3.27-6.34,4.74a70.77,70.77,0,0,1-8.63,5c-1.06.51,1.87-.82.49-.23l-.32.13a5.71,5.71,0,0,0-3.26,8c1.49,3.1,5.47,5.77,8.68,4.52Z"/><path class="cls-17" d="M2035.13,1625.6c8.32-3.06,15.95-7.93,22.77-13.18a107.3,107.3,0,0,0,35.17-46.72,120.5,120.5,0,0,0,7.68-39.11,231.21,231.21,0,0,0-1.07-25.7c-.69-8.7-1.38-17.39-2-26.08-.52-7.36-1-14.72-1.29-22.06-.06-1.47-.11-3-.16-4.42l0-1.29c0-1.46,0,1.19,0,.24s0-1.8,0-2.7c0-2.85,0-5.7,0-8.54a119.62,119.62,0,0,1,1.11-14.48c.3-2,.69-4,1.15-6,.35-1.49-.43,1.5,0,0,.11-.4.23-.8.35-1.2.28-.92.6-1.82.95-2.71a40.34,40.34,0,0,1,2.12-4.39c.29-.55-.94,1.4-.14.24l.65-.93a22.91,22.91,0,0,1,1.47-1.79c.49-.54,1.07-1,1.55-1.54.06-.07-1.34,1.09-.7.63.16-.12.3-.26.46-.38.31-.25.63-.48,1-.71a21,21,0,0,1,1.87-1.17q.43-.26.9-.48l.46-.23c1-.51-1.5.61-.59.27a39.46,39.46,0,0,1,4.58-1.48c.84-.2,1.69-.37,2.54-.51l.49-.07c1.06-.18-1.8.21-.71.1l1.52-.17a47.84,47.84,0,0,1,5.63-.21c.55,0,1.1.06,1.66.1,1.4.11-1.66-.27-.85-.12l.9.15a23.59,23.59,0,0,1,3.32.88l.9.32c.77.27-2.09-.89-.75-.28.55.24,1.1.49,1.64.76,1.12.56,2.19,1.21,3.26,1.88,1.41.9-.83-.6-.44-.31l.73.53c.56.42,1.12.85,1.67,1.3,1.09.9,2.13,1.85,3.14,2.84.5.49,1,1,1.48,1.51s-1.45-1.61-.39-.41l1,1.1a73.72,73.72,0,0,1,5.83,7.84c.43.66.85,1.33,1.27,2l.68,1.14c.89,1.48-.92-1.64,0,0s1.79,3.24,2.61,4.89c1.78,3.56,3.35,7.18,4.76,10.84.76,2,1.46,3.93,2.13,5.91.32,1,.64,2,.95,2.93l.48,1.56c.05.2.11.39.17.58.34,1.11-.55-1.92-.08-.28q1.88,6.63,3.23,13.31a196.06,196.06,0,0,1,3.6,29.59c.06,1.31.11,2.62.15,3.94s0-1.36,0-.46c0,.3,0,.6,0,.9,0,.73,0,1.46,0,2.18,0,2.71,0,5.42-.09,8.11-.17,5.6-.55,11.17-1.13,16.68q-.95,8.79-2.54,17.4-.83,4.4-1.8,8.75c-.32,1.41-.65,2.81-1,4.21-.16.67-.33,1.34-.5,2-.11.4-.19.82-.32,1.21.57-1.71,0,.11-.13.46a233.56,233.56,0,0,1-13,35.85q-4.2,9.21-9.13,18-1.21,2.16-2.46,4.28c-.44.75-.89,1.5-1.34,2.24-.16.27-.32.54-.49.81q-.53.87.06-.09l-.5.81c-1.87,3-3.8,6-5.8,8.91a266,266,0,0,1-28.4,34.81q-4,4.1-8.08,8-2.19,2.1-4.44,4.16l-2.06,1.88-1.26,1.13c-.05,0-1.44,1.27-.54.48-2.34,2.06-3.49,5.66-.92,8.85,2.12,2.64,6.71,4.54,9.23,2.33,23.52-20.69,43.76-44.59,59.21-72.1a239.55,239.55,0,0,0,26.62-73.38,221.56,221.56,0,0,0,2.25-67.63c-2.16-17.63-6.61-36-15-52.74-6.07-12.13-14.8-25-27.35-31.67a33.66,33.66,0,0,0-18-3.81c-8.46.47-16.17,2.71-22.09,8.06-5.62,5.08-8.34,12.57-9.9,20.14-2.12,10.24-2,21.2-1.73,32,.37,15.08,1.58,30.28,2.76,45.44l1.14,14.39c.16,2,.32,3.92.44,5.88q.09,1.61.15,3.21l0,1.05c0,.75,0,.7,0-.15,0,.35,0,.69,0,1a128.77,128.77,0,0,1-1.52,21.69c-.5,3.2-1.14,6.36-1.9,9.47a10.24,10.24,0,0,1-.32,1.24c.06-.14.38-1.37.09-.32-.23.8-.45,1.6-.68,2.4-.43,1.44-.89,2.86-1.37,4.27a102.06,102.06,0,0,1-6.9,15.71c-.63,1.15-1.28,2.29-1.95,3.41l-.37.61c-.66,1.1.76-1.2.07-.12-.37.59-.74,1.17-1.12,1.75q-2.07,3.16-4.38,6.16a103,103,0,0,1-9.13,10.34c-.75.74-1.52,1.47-2.29,2.19l-1,1-.62.55c-.79.73,1.08-.93.32-.28-1.53,1.32-3.08,2.61-4.67,3.85q-4,3.12-8.31,5.84c-2.27,1.43-4.6,2.79-7,4q-1.31.68-2.64,1.32l-1.09.5c1.37-.65,1.38-.61.37-.17-.53.23-1.07.46-1.61.66a5.69,5.69,0,0,0-3.27,8c1.52,3.16,5.45,5.72,8.68,4.52Z"/><path class="cls-17" d="M2054.23,1647.58A127.65,127.65,0,0,0,2076,1632c15.26-13.09,28.39-28.65,36.9-47.21a105.16,105.16,0,0,0,9.55-38.91c.15-3.31-2.09-7.15-5.78-8-3.35-.74-7.09,1-7.25,4.52a99.29,99.29,0,0,1-2.42,17.75c-.15.67-.32,1.33-.48,2-.09.37-.27,1.44,0,0-.06.29-.16.59-.24.87-.4,1.43-.84,2.86-1.3,4.27-.87,2.65-1.84,5.24-2.92,7.79a110.57,110.57,0,0,1-7.17,14.11c-.17.29-.34.6-.53.88.08-.13.72-1.15.16-.27l-1,1.55c-.69,1.08-1.41,2.14-2.13,3.19q-2.14,3.09-4.45,6a155.08,155.08,0,0,1-18.51,19.58c-.59.53,1.18-1,.31-.28l-.47.42-1.17,1q-1.09.93-2.19,1.83c-1.34,1.1-2.7,2.17-4.07,3.23q-3.54,2.72-7.24,5.23c-2.5,1.7-5,3.38-7.72,4.84s-3.17,6-.92,8.85c2.49,3.1,6.24,4,9.23,2.32Z"/><path class="cls-17" d="M2124.35,1521.48c-1.31-7.31-2.35-14.63-3.29-21.94-.92-7.16-1.71-14.32-2.31-21.47q-.49-5.76-.79-11.49-.15-2.92-.24-5.83a6.58,6.58,0,0,1,0-1.4c0,.05,0,1.74,0,.68,0-.23,0-.46,0-.7l0-2.76a125.45,125.45,0,0,1,1.29-20.5c.23-1.45.51-2.88.85-4.29.07-.29.35-1.36,0-.19s0,0,.08-.28q.28-1,.6-1.89a26.35,26.35,0,0,1,1.38-3.23l.33-.61c.56-1.06-.81,1.18-.32.49.3-.42.58-.85.9-1.25s.61-.69.93-1c.78-.83-.77.6-.54.46s.38-.3.58-.44a8.42,8.42,0,0,0,1.09-.64c-.27.26-1.74.64-.73.35l.6-.19c1.19-.33,1.18.18-.43,0a2.92,2.92,0,0,0,.66,0c1.15-.09-1.21-.22-1-.16a5.58,5.58,0,0,0,.68.16l.66.22c0,.09-2-.93-1.28-.5.12.07.26.11.38.18l.67.37c.11.06.22.15.34.21.81.42-1.58-1.2-1-.69s1,.74,1.42,1.15l.69.66c1.14,1.09-.89-1-.44-.48a42.66,42.66,0,0,1,2.88,3.7c.49.72,1,1.44,1.4,2.17.11.2.22.39.34.58.48.79-1.06-1.87-.46-.8.24.44.49.88.72,1.32a90.54,90.54,0,0,1,5.32,12.1c.88,2.41,1.66,4.84,2.4,7.28.43,1.4-.43-1.54-.15-.54l.27,1c.2.69.39,1.39.57,2.08q.55,2.09,1,4.17a176.25,176.25,0,0,1,3.3,18,199,199,0,0,1,1.63,20.28c0,.21,0,.43,0,.64,0,.81,0-1.55,0-.74,0,.37,0,.75,0,1.13l0,3c0,1.78,0,3.55-.06,5.32-.09,3.69-.28,7.37-.57,11a195.61,195.61,0,0,1-3.14,22.94q-.57,2.87-1.21,5.7c-.22,1-.45,1.91-.68,2.86l-.36,1.43c-.07.28-.52,2-.26,1s-.17.64-.23.84c-.13.48-.26,1-.4,1.44-.29,1-.58,2-.89,3q-.87,2.89-1.83,5.74a177.84,177.84,0,0,1-9.75,23.41q-2.94,5.85-6.28,11.44c-.28.46-.54.94-.85,1.39.75-1.1,0,0-.27.43q-.93,1.47-1.89,2.94-1.87,2.86-3.87,5.66a179.65,179.65,0,0,1-18.07,21.52q-2.53,2.58-5.17,5.06c-.89.84-1.79,1.67-2.69,2.49l-1.38,1.24c-.2.18-.85.74.11-.09l-.88.77q-5.86,5.06-12.11,9.67-6.42,4.74-13.21,9c-2.68,1.68-3.27,5.94-.92,8.86s6.36,4.12,9.22,2.32a201.2,201.2,0,0,0,47.93-41.58,182.23,182.23,0,0,0,28.37-47.41,196.12,196.12,0,0,0,12.72-48.81,210.6,210.6,0,0,0,.78-45.79,182.09,182.09,0,0,0-7.37-37.64c-2.68-8.65-6.22-17.64-11.79-25.33-4.61-6.36-11.66-11.86-19.12-9.72-5.41,1.55-8.77,6.29-10.67,11.28-2.23,5.85-3.14,12.36-3.59,18.82-1.1,15.48.11,31.53,1.81,47.37q1.68,15.74,4.34,31.52c.09.54.18,1.08.28,1.61.6,3.39,4,6.64,7.49,6.48s6.1-2.85,5.45-6.48Z"/><path class="cls-17" d="M2156.21,1628.75c3.69,5.32,9.3,10,14.5,13.8,14.6,10.66,31.4,17.29,48.23,21A201.5,201.5,0,0,0,2264,1668a5.44,5.44,0,0,0,5.45-6.47c-.71-3.49-3.87-6.5-7.5-6.47-6.83,0-13.71-.19-20.62-.79-1.57-.14-3.15-.3-4.72-.48l-2.17-.26c-.22,0-1.37-.18-.46,0l-1-.14q-4.29-.62-8.58-1.45a150.36,150.36,0,0,1-15.26-3.78c-2.25-.69-4.5-1.44-6.73-2.25-1.05-.38-2.09-.81-3.14-1.19.08,0,1.61.65.58.23l-.71-.29-1.56-.65a115.34,115.34,0,0,1-10.66-5.22c-1.49-.83-3-1.71-4.43-2.62l-1.91-1.22-.91-.61c-1.32-.88,1.43,1,.15.11a80.34,80.34,0,0,1-10.77-9l-.93-1c-.71-.73,1.49,1.64.7.75l-.36-.4c-.41-.46-.81-.92-1.2-1.39s-.66-.81-.95-1.24c-2.07-3-6.66-4.17-9.23-2.32-2.73,2-3.13,5.66-.92,8.86Z"/><path class="cls-17" d="M2140.59,1650.16a97,97,0,0,0,15.25,15.53,141.93,141.93,0,0,0,44.88,25.43,145.78,145.78,0,0,0,37.55,7.51,5.41,5.41,0,0,0,5.45-6.47,8.1,8.1,0,0,0-7.5-6.48c-1.38-.1-2.77-.21-4.15-.35l-2-.21-1.16-.14c-.29,0-1.67-.23-.24,0-2.68-.38-5.36-.81-8-1.33a137.14,137.14,0,0,1-15.07-3.87q-3.42-1.1-6.78-2.37c-.71-.27-1.63-.56-.37-.13-.59-.2-1.18-.48-1.76-.72-1.08-.44-2.15-.91-3.22-1.38q-5.91-2.64-11.59-5.87-2.55-1.46-5.06-3c-.77-.48-1.54-1-2.3-1.48l-1.11-.74c-1.48-1,.73.53-.08,0-2.78-2-5.5-4-8.14-6.13a130.33,130.33,0,0,1-11.16-10.38c1.65,1.71.7.75.06,0l-.84-.94c-.45-.52-.9-1-1.34-1.58s-.74-.9-1.09-1.37c-2.17-2.92-6.59-4.21-9.22-2.32s-3.25,5.73-.93,8.86Z"/><path class="cls-17" d="M2121.81,1671.24A68.76,68.76,0,0,0,2132.3,1686a100.67,100.67,0,0,0,34.5,24.92,116.62,116.62,0,0,0,32.55,8.56c3.44.41,6.1-3.27,5.45-6.47-.78-3.87-3.81-6-7.5-6.48-.46,0-1.76-.25-.58-.07l-1.72-.25c-1.22-.19-2.43-.4-3.65-.63q-3.34-.63-6.68-1.48-3.15-.81-6.26-1.81c-1-.34-2.06-.69-3.09-1.06l-1.39-.52-.68-.26c-.89-.32,1.17.49.3.12a111.46,111.46,0,0,1-10.36-4.94c-1.56-.85-3.09-1.76-4.6-2.71-.69-.44-1.38-.88-2.06-1.34s-.6-.47.14.11c-.37-.29-.76-.54-1.14-.8a91.35,91.35,0,0,1-7.25-5.78c-2.08-1.84-3.93-3.88-6-5.76.39.36,1.16,1.26.41.44-.19-.22-.39-.43-.58-.64l-1.19-1.36c-.7-.82-1.39-1.65-2.06-2.49-1.1-1.39-2.16-2.82-3.16-4.28-.76-1.12-1.41-2.29-2.17-3.4,0,0,1.12,2,.55.94l-.21-.38c-.06-.11-.12-.22-.17-.33-1.62-3.19-5.38-5.65-8.68-4.52a5.65,5.65,0,0,0-3.26,8Z"/><path class="cls-17" d="M2227,1634.25c1.3-2.91,2.4-6,3.47-9,3.09-8.78,5.65-17.8,7.9-26.94a344.93,344.93,0,0,0,7.3-40,378,378,0,0,0,2.76-52.64,404.85,404.85,0,0,0-6.06-63.79c-.5-2.85-1-5.69-1.6-8.54-.67-3.37-3.93-6.63-7.5-6.47-3.37.15-6.17,2.85-5.45,6.47a399.11,399.11,0,0,1,7.43,63.5c.05,1.15.07,2.29.11,3.43,0,.77,0-.21,0-.3,0,.28,0,.56,0,.85,0,.75,0,1.5,0,2.25q.06,3.47,0,6.93,0,6.85-.29,13.66-.49,12.82-1.86,25.48a350,350,0,0,1-6.94,41.41q-.95,4.13-2,8.2c-.08.3-.16.6-.23.9.15-.62.34-1.29.09-.36-.18.68-.36,1.35-.55,2-.32,1.15-.64,2.29-1,3.44-1.14,4-2.36,7.88-3.69,11.76s-2.74,7.34-4.15,11a1,1,0,0,1-.07.15c-1.29,2.9.42,7.24,3.73,8.85s7.1.78,8.49-2.32Z"/><path class="cls-17" d="M2251.09,1645.26c3.63-9.06,6.7-18.44,9.61-27.85,6.43-20.84,11.76-42.29,14.8-64.37a229.34,229.34,0,0,0,2.17-40.73c-.14-3.38-4.31-6.62-7.5-6.48-3.82.18-5.6,2.86-5.45,6.48,0,.68.05,1.36.08,2,0,1.23,0,0,0-.18,0,.34,0,.69,0,1,0,1.56,0,3.11,0,4.66q0,4.2-.27,8.37c-.31,6-.86,11.84-1.59,17.69a340.23,340.23,0,0,1-6.13,34.06q-.89,3.84-1.83,7.67c-.31,1.24-.63,2.48-.95,3.71-.15.61-.31,1.22-.47,1.83.4-1.53-.2.74-.31,1.16-1.25,4.64-2.58,9.25-4,13.84q-3.22,10.66-6.93,21.11c-1.12,3.16-2.26,6.32-3.51,9.43a7.38,7.38,0,0,0,3.73,8.85c3.31,1.62,7.22.84,8.49-2.32Z"/><path class="cls-17" d="M2283.13,1645.26a225.51,225.51,0,0,0,7.92-23.34,309.3,309.3,0,0,0,11.31-57.28,236.11,236.11,0,0,0,.49-40.1c-.25-3.38-4.23-6.62-7.5-6.47-3.72.17-5.72,2.85-5.45,6.47.22,2.94.38,5.86.48,8.78,0,.34,0,1.84,0,.78,0,.72,0,1.45,0,2.18,0,1.55,0,3.1,0,4.65-.06,5.6-.33,11.18-.78,16.71a281.82,281.82,0,0,1-4.37,31.18q-1.34,6.84-3,13.59c-.24,1-.48,2-.73,3-.14.52-.27,1-.4,1.56-.06.23-.12.45-.17.67s-.39,1.45-.14.54-.14.51-.2.73c-.13.49-.27,1-.4,1.47-.26,1-.53,1.91-.8,2.86q-2.57,9-5.66,17.83c-.91,2.58-1.84,5.16-2.88,7.67-1.22,2.94.36,7.21,3.72,8.85s7.19.82,8.49-2.32Z"/><path class="cls-13" d="M1787.3,1304.51a6.64,6.64,0,0,1-6.26-5.29L1758.1,1175c-2-10.79,5.17-19.56,16-19.56h83a6.65,6.65,0,0,1,6.27,5.29,4.28,4.28,0,0,1-4.32,5.28h-83c-5,0-8.24,4-7.33,9l22.94,124.18A4.28,4.28,0,0,1,1787.3,1304.51Z"/><path class="cls-13" d="M2401,1304.51a4.27,4.27,0,0,0,4.31-5.29L2382.39,1175c-2-10.79-12.39-19.56-23.18-19.56h-83a4.27,4.27,0,0,0-4.31,5.29,6.64,6.64,0,0,0,6.26,5.28h83a11.34,11.34,0,0,1,10.65,9l22.93,124.18A6.65,6.65,0,0,0,2401,1304.51Z"/><path class="cls-13" d="M1856.44,1678.82a4.28,4.28,0,0,0-4.32,5.29l22.94,124.18c2,10.79,12.39,19.57,23.18,19.57h83a4.28,4.28,0,0,0,4.32-5.29,6.66,6.66,0,0,0-6.27-5.29h-83a11.31,11.31,0,0,1-10.65-9l-22.94-124.18A6.65,6.65,0,0,0,1856.44,1678.82Z"/><path class="cls-13" d="M2470.15,1678.82a6.64,6.64,0,0,1,6.26,5.29l22.94,124.18c2,10.79-5.16,19.57-15.95,19.57h-83a6.65,6.65,0,0,1-6.26-5.29,4.28,4.28,0,0,1,4.31-5.29h83c5,0,8.25-4,7.33-9l-22.93-124.18A4.28,4.28,0,0,1,2470.15,1678.82Z"/><g class="cls-18"><path class="cls-19" d="M2500.53,2064.45H1924.15a39.68,39.68,0,0,1-39.07-32.71l-14.87-83.45a39.68,39.68,0,0,1,39.06-46.64h576.38a39.69,39.69,0,0,1,39.06,32.71l14.88,83.45A39.67,39.67,0,0,1,2500.53,2064.45Z"/></g><path class="cls-4" d="M2515.31,2046.86H1938.92a39.69,39.69,0,0,1-39.06-32.71L1885,1930.7a39.68,39.68,0,0,1,39.07-46.64h576.38a39.68,39.68,0,0,1,39.06,32.71l14.88,83.45A39.68,39.68,0,0,1,2515.31,2046.86Z"/><g class="cls-18"><path class="cls-19" d="M1913.43,1496.1h438.94c13,0,24.13,9.05,26.36,21.45l44.3,229.34c2.85,15.83-9.75,30.32-26.37,30.32H1960.41c-13,0-24-9-26.34-21.29l-47-229.35C1884.14,1510.7,1896.75,1496.1,1913.43,1496.1Z"/></g><circle class="cls-17" cx="1863.83" cy="1497.38" r="15.11"/><circle class="cls-17" cx="2420.14" cy="1497.38" r="15.11"/><rect class="cls-17" x="1869.64" y="1493.93" width="546.42" height="6.02"/><path class="cls-13" d="M1957.74,1998.05a7.08,7.08,0,0,1-2.29-4.54l-7.67-55.91a5.11,5.11,0,0,1,1-4.3,5.27,5.27,0,0,1,4.14-1.53h23.51q10.8,0,17.56,5.4t8.1,15.15q1.34,9.75-3.94,15.19t-16.07,5.45H1965l2.82,20.55a5.52,5.52,0,0,1-1,4.54,5.41,5.41,0,0,1-4.31,1.67A6.86,6.86,0,0,1,1957.74,1998.05Zm21.5-34.55q12.71,0,11.18-11.08t-14.23-11.09h-15.58l3.05,22.17Z"/><path class="cls-13" d="M2074.72,1994.27a4.19,4.19,0,0,1-1.25,3.73,5.29,5.29,0,0,1-3.85,1.53,6.08,6.08,0,0,1-3-.81,6.74,6.74,0,0,1-2.45-2.54l-7.49-12.8h-33.63l-4,12.8a4.5,4.5,0,0,1-1.76,2.54,5,5,0,0,1-2.85.81,6.92,6.92,0,0,1-4.22-1.53,5.53,5.53,0,0,1-2.33-3.73,5.67,5.67,0,0,1,.23-2.48l18.6-56.67a5.07,5.07,0,0,1,2.23-2.92,6.8,6.8,0,0,1,3.64-1,8.27,8.27,0,0,1,3.91,1,7.53,7.53,0,0,1,3,2.92l34.25,56.67A6.52,6.52,0,0,1,2074.72,1994.27ZM2026,1973.82h25.23l-16.51-28.38Z"/><path class="cls-13" d="M2094.78,1998.05a36,36,0,0,1-11.38-5.31,6.28,6.28,0,0,1-2.83-4.58,4.89,4.89,0,0,1,.72-3.49,3,3,0,0,1,2.61-1.48,8.76,8.76,0,0,1,4.11,1.33,33.23,33.23,0,0,0,9.19,4.3,36.32,36.32,0,0,0,10.12,1.34q7,0,10.37-2.43c2.26-1.63,3.17-4,2.75-7.12a7.3,7.3,0,0,0-4.26-5.6q-3.75-2-12.13-3.77a76.45,76.45,0,0,1-14.24-4.21,23.39,23.39,0,0,1-8.77-6.11,17.86,17.86,0,0,1-4-9.46,16.13,16.13,0,0,1,1.89-10.61,18.09,18.09,0,0,1,8.31-7.31,30.51,30.51,0,0,1,13.06-2.63q13.66,0,23.27,7.26a9.21,9.21,0,0,1,2.05,2.06,6.05,6.05,0,0,1,.87,2.53,4.85,4.85,0,0,1-.72,3.49,3,3,0,0,1-2.61,1.48,5.41,5.41,0,0,1-1.81-.29,15.09,15.09,0,0,1-2.29-1,39,39,0,0,0-8.18-4.25,27.56,27.56,0,0,0-9.23-1.38q-6.49,0-9.91,2.62a7.33,7.33,0,0,0-2.77,7.31,7.93,7.93,0,0,0,4.17,6q3.63,2.11,11.91,3.92a85.68,85.68,0,0,1,14.4,4.26,24.84,24.84,0,0,1,8.94,6,16.32,16.32,0,0,1,4.06,9.08,15.76,15.76,0,0,1-1.86,10.46,17.65,17.65,0,0,1-8.3,7.07A32.3,32.3,0,0,1,2109,2000,51.28,51.28,0,0,1,2094.78,1998.05Z"/><path class="cls-13" d="M2157.37,1998.05a36.07,36.07,0,0,1-11.38-5.31,6.31,6.31,0,0,1-2.83-4.58,4.89,4.89,0,0,1,.72-3.49,3,3,0,0,1,2.61-1.48,8.76,8.76,0,0,1,4.11,1.33,33.36,33.36,0,0,0,9.19,4.3,36.32,36.32,0,0,0,10.12,1.34q7,0,10.37-2.43t2.75-7.12a7.28,7.28,0,0,0-4.26-5.6q-3.75-2-12.13-3.77a76.45,76.45,0,0,1-14.24-4.21,23.47,23.47,0,0,1-8.77-6.11,17.94,17.94,0,0,1-4-9.46,16.19,16.19,0,0,1,1.89-10.61,18.09,18.09,0,0,1,8.31-7.31,30.54,30.54,0,0,1,13.06-2.63q13.68,0,23.27,7.26a9,9,0,0,1,2,2.06,6.05,6.05,0,0,1,.87,2.53,4.9,4.9,0,0,1-.71,3.49,3,3,0,0,1-2.62,1.48,5.41,5.41,0,0,1-1.81-.29,15.09,15.09,0,0,1-2.29-1,38.74,38.74,0,0,0-8.18-4.25,27.54,27.54,0,0,0-9.22-1.38q-6.51,0-9.92,2.62a7.33,7.33,0,0,0-2.77,7.31,7.93,7.93,0,0,0,4.17,6q3.64,2.11,11.91,3.92a85.39,85.39,0,0,1,14.4,4.26,24.75,24.75,0,0,1,8.94,6,16.4,16.4,0,0,1,4.07,9.08,15.76,15.76,0,0,1-1.87,10.46,17.65,17.65,0,0,1-8.3,7.07,32.3,32.3,0,0,1-13.36,2.53A51.33,51.33,0,0,1,2157.37,1998.05Z"/><path class="cls-13" d="M2286.9,1932.15a5.39,5.39,0,0,1,3.16-1,6.73,6.73,0,0,1,4.17,1.43,5.63,5.63,0,0,1,2.2,3.82,9.61,9.61,0,0,1-.14,2.49l-12.75,56.86a4.84,4.84,0,0,1-2.12,3,6.7,6.7,0,0,1-3.73,1,8.5,8.5,0,0,1-4.06-1,6.51,6.51,0,0,1-2.89-3l-22-45-10,45a4.89,4.89,0,0,1-2.13,3,6.72,6.72,0,0,1-3.73,1,8.2,8.2,0,0,1-4-1,6.58,6.58,0,0,1-2.85-3l-28.35-56.86a8.59,8.59,0,0,1-.81-2.49,4.09,4.09,0,0,1,1.24-3.82,5.68,5.68,0,0,1,4-1.43,7.09,7.09,0,0,1,3.57,1,6.48,6.48,0,0,1,2.59,2.87l22.66,46.73,10.35-46.44a5,5,0,0,1,5-4.11,6.53,6.53,0,0,1,3.54,1.1,7.14,7.14,0,0,1,2.68,3.1l22.68,46.92,10-47.3A4.51,4.51,0,0,1,2286.9,1932.15Z"/><path class="cls-13" d="M2327.94,1995.8a34.35,34.35,0,0,1-12.79-12,45.19,45.19,0,0,1-6.44-18.35q-1.44-10.52,1.36-18.3a22.83,22.83,0,0,1,9.49-12q6.69-4.21,16.53-4.21a36.5,36.5,0,0,1,17.64,4.21,34.15,34.15,0,0,1,12.73,12,45.19,45.19,0,0,1,6.38,18.3q1.44,10.52-1.4,18.35a23.16,23.16,0,0,1-9.48,12q-6.64,4.2-16.39,4.2A36.54,36.54,0,0,1,2327.94,1995.8Zm29.88-12q4.33-6.4,2.69-18.35t-7.72-18.3a20.32,20.32,0,0,0-15.35-6.35q-9.36,0-13.7,6.35t-2.7,18.3q1.65,12,7.73,18.35a20.4,20.4,0,0,0,15.45,6.4Q2353.49,1990.16,2357.82,1983.76Z"/><path class="cls-13" d="M2446,1994.75a3.9,3.9,0,0,1-1.27,3.63,5.64,5.64,0,0,1-4,1.43,7,7,0,0,1-3-.71,7.73,7.73,0,0,1-2.63-2.15l-15.36-19.31a15.32,15.32,0,0,0-4.65-4.3,12.21,12.21,0,0,0-5.76-1.24h-9.37l2.94,21.41a5.62,5.62,0,0,1-1,4.54,5.13,5.13,0,0,1-4.17,1.67,6.82,6.82,0,0,1-4.67-1.67,7.09,7.09,0,0,1-2.3-4.54l-7.67-55.91a5.15,5.15,0,0,1,1-4.3,5.26,5.26,0,0,1,4.13-1.53h23.9q11.46,0,18.14,5.11t8,14.77q1.07,7.83-2.68,12.85t-11.68,6.45a14.18,14.18,0,0,1,5.2,2.39,25.87,25.87,0,0,1,4.76,4.78l10.52,13.29A7,7,0,0,1,2446,1994.75ZM2424.47,1960q2.88-2.62,2.14-8.07t-4.36-8.08q-3.6-2.53-10.57-2.53h-16.06l2.93,21.31h16Q2421.57,1962.64,2424.47,1960Z"/><path class="cls-13" d="M2460.92,1997.61a6.53,6.53,0,0,1-2.16-4.29l-7.65-55.72a5.15,5.15,0,0,1,1-4.3,5.26,5.26,0,0,1,4.13-1.53h18.93q16.53,0,26.87,8.84t12.53,24.8q2.21,16-5.71,24.89t-24.45,8.85h-18.92A6.76,6.76,0,0,1,2460.92,1997.61Zm21.34-8.5q23.22,0,20-23.7t-26.46-23.6H2464l6.5,47.3Z"/><path class="cls-20" d="M1927,2411.35h227.26a21.25,21.25,0,0,0,21.21-23l-5.55-36a21.63,21.63,0,0,0-21.53-19.86H1921.08a21.24,21.24,0,0,0-21.2,23l5.54,36A21.64,21.64,0,0,0,1927,2411.35Z"/><path class="cls-4" d="M1938.73,2411.35H2166a21.25,21.25,0,0,0,21.21-23l-5.55-36a21.63,21.63,0,0,0-21.53-19.86H1932.86a21.24,21.24,0,0,0-21.2,23l5.55,36A21.64,21.64,0,0,0,1938.73,2411.35Z"/><path class="cls-20" d="M2386,2411.35h227.27a21.25,21.25,0,0,0,21.2-23l-5.55-36a21.63,21.63,0,0,0-21.52-19.86H2380.17a21.24,21.24,0,0,0-21.2,23l5.55,36A21.64,21.64,0,0,0,2386,2411.35Z"/><path class="cls-4" d="M2397.83,2411.35h227.26a21.24,21.24,0,0,0,21.2-23l-5.55-36a21.63,21.63,0,0,0-21.52-19.86H2392a21.25,21.25,0,0,0-21.21,23l5.55,36A21.64,21.64,0,0,0,2397.83,2411.35Z"/><path class="cls-21" d="M3398.91,2588.93a63,63,0,0,1-62.93,62.93h-46.37a14,14,0,0,1,2.16,7.23c0,55.73-380.57,100.91-850,100.91s-850.06-45.18-850.06-100.91a13.93,13.93,0,0,1,2.17-7.23h-59.33a62.93,62.93,0,0,1,0-125.85H3336A62.93,62.93,0,0,1,3398.91,2588.93Z"/><path class="cls-22" d="M3194.27,2535.25c0,64.32-322.13,116.46-719.44,116.46s-719.48-52.14-719.48-116.46a20.76,20.76,0,0,1,2.26-9.24H3192.05A21.26,21.26,0,0,1,3194.27,2535.25Z"/><path class="cls-23" d="M2693.83,1756s-11.63,54.54-43.35,90.27-118.45,46.49-118,29.5,34.86-47.8,34.86-47.8,30.4-34.42,26.39-37.11-13.42.44-13.42.44-10.28,13.85-25.48,18.77-18.77-5.36-18.77-5.36,47.83-44.7,56.32-53.63,64.35-21,64.35-21Z"/><path class="cls-24" d="M2627.14,1737.37s3,54.48,49.34,68.21l6.5-14.42Z"/><path class="cls-24" d="M2593.72,1790.84c-4-2.67-13.42.44-13.42.44s-10.28,13.85-25.48,18.77-18.77-5.36-18.77-5.36,6.35,5.57,18.95,2.17,20.47-18.92,29.11-20.42S2593.72,1790.84,2593.72,1790.84Z"/><path class="cls-23" d="M2573.37,1875.82,2562,1885s3.87,4.93,12.74,1.8a43.32,43.32,0,0,0,14.95-9.38Z"/><path class="cls-23" d="M2556.33,1873.74l-11.35,9.14s3.88,4.94,12.74,1.81a43.14,43.14,0,0,0,15-9.39Z"/><path class="cls-24" d="M2532.47,1877s5.55,4.44,13.88,1.39,57.17-48.64,57.17-48.64,1.94.9-3.33,6.73-44.1,43.49-51.9,45.24S2534.41,1882.85,2532.47,1877Z"/><path class="cls-24" d="M2544,1882.91s5.55,4.44,13.87,1.39,57.18-48.64,57.18-48.64,1.94.9-3.33,6.73-44.1,43.49-51.9,45.24S2546,1888.74,2544,1882.91Z"/><path class="cls-24" d="M2559.67,1883.39s5.13,4.92,13.7,2.63,61.32-43.29,61.32-43.29,1.85,1.07-3.92,6.4-47.84,39.34-55.77,40.38S2561.08,1889.37,2559.67,1883.39Z"/><path class="cls-25" d="M2789.86,2576.76c0,19.3-8.45,29-8.45,29h-226.8a20.43,20.43,0,0,1-20.41-20.1,68.85,68.85,0,0,1,2.12-19.74c4.85-16.88,31.39-12.07,50.72-24.14,14.74-9.2,59.69-44.42,80.17-60.58l10.39-8.24V2421l94.15-9.66-6,57.94s4.75,17.28,10,38.22C2782.37,2533.86,2789.86,2566,2789.86,2576.76Z"/><path class="cls-12" d="M2789.86,2576.76a54.82,54.82,0,0,1-3.29,19.33,32.29,32.29,0,0,1-5.16,9.63H2554.62a20.46,20.46,0,0,1-20.44-20.09c-.09-6.43.35-13.5,2.12-19.74,4.16-14.51,24.34-13,42.17-19.93a50,50,0,0,0,8.56-4.21c14.76-9.22,59.69-44.42,80.19-60.58l.82-.31,15.53,8a12.1,12.1,0,0,1,6.21,13.44l-5.29,22.9s41.06-2.18,83.8-16.69a17.94,17.94,0,0,1,7.44-1.05C2782.36,2533.86,2789.86,2566,2789.86,2576.76Z"/><path class="cls-26" d="M2786.57,2596.09a32.29,32.29,0,0,1-5.16,9.63H2554.62a20.46,20.46,0,0,1-20.44-20.09c-.09-6.43.35-13.5,2.12-19.74,4.16-14.51,24.34-13,42.17-19.93,3.49,7.83,8.24,23.2,9.32,50.13Z"/><rect class="cls-27" x="2618.57" y="2514.87" width="8.73" height="24.55" rx="4.23" transform="translate(-998.85 2141.24) rotate(-37.85)"/><rect class="cls-27" x="2636.18" y="2500.33" width="8.73" height="24.55" rx="4.23" transform="translate(-997.06 2281.35) rotate(-39.94)"/><rect class="cls-27" x="2654.43" y="2484.85" width="8.73" height="24.55" rx="4.23" transform="translate(-982.87 2289.45) rotate(-39.94)"/><path class="cls-25" d="M3167.09,2453.45c10.56,16.28,8.73,29.05,8.73,29.05l-191.35,124.18a20.55,20.55,0,0,1-28.23-5.78,69.6,69.6,0,0,1-9-17.81c-5.15-16.9,19.88-27.38,29.58-48.14,7.4-15.84,26-70.16,34.47-95,2.61-7.74,4.25-12.64,4.25-12.64l-28.42-43.8,74.15-59.7,26.63,52.19s13.47,12,29.38,26.76C3137.28,2421.35,3161.19,2444.35,3167.09,2453.45Z"/><path class="cls-12" d="M3167.1,2453.44a55.22,55.22,0,0,1,7.8,18.11,32.76,32.76,0,0,1,.92,11l-191.35,124.17a20.57,20.57,0,0,1-28.23-5.76,70.48,70.48,0,0,1-9-17.82c-4.44-14.51,13.42-24.28,24.67-39.9a50.79,50.79,0,0,0,4.91-8.24c7.41-15.86,26-70.16,34.49-95l.52-.72,17.5-1.71a12.15,12.15,0,0,1,12.6,7.93l8.07,22.22s33.45-24.32,61.56-60a18.13,18.13,0,0,1,5.71-4.95C3137.27,2421.36,3161.2,2444.35,3167.1,2453.44Z"/><path class="cls-26" d="M3174.9,2471.55a32.76,32.76,0,0,1,.92,11l-191.35,124.17a20.57,20.57,0,0,1-28.23-5.76,70.48,70.48,0,0,1-9-17.82c-4.44-14.51,13.42-24.28,24.67-39.9,7.22,4.69,19.65,15.06,35.3,37.19Z"/><rect class="cls-27" x="2994.71" y="2490.64" width="8.78" height="24.69" rx="4.25" transform="translate(-349.76 4514.11) rotate(-70.83)"/><rect class="cls-27" x="3001.6" y="2468.73" width="8.78" height="24.69" rx="4.25" transform="translate(-248.47 4625.88) rotate(-72.92)"/><rect class="cls-27" x="3008.52" y="2445.67" width="8.78" height="24.69" rx="4.25" transform="translate(-221.54 4616.21) rotate(-72.92)"/><path class="cls-28" d="M3089.28,2357.84s-22.61,59.22-102.58,61.15c0,0-142.67-224.53-165.13-263.81l-23.85-74.37-.14.79-16.7,86.2,4.57,221,1.06,50.43s-66,40-133.3,0L2642,2139.74l39.28-409.68h238.51l41.38,385.84,107.65,203.24Z"/><path class="cls-29" d="M2780.88,2167.8l4.57,221-36.67,3.16s-7.64-192.44-12.24-228.52,0-301.37,0-301.37c22.05,37.37,58.4,207.14,61,219.53Z"/><path class="cls-30" d="M2797.72,2082.34a1.53,1.53,0,0,1-1.49-1.19c-.43-1.92-43.62-192.23-60.11-217a1.53,1.53,0,0,1,2.54-1.69c16.8,25.2,58.77,210.12,60.54,218a1.51,1.51,0,0,1-1.14,1.82A1.37,1.37,0,0,1,2797.72,2082.34Z"/><path class="cls-29" d="M3068.81,2319.14l-28.56,27.77s-105-187.31-123.05-231.07-37.29-282.59-37.29-282.59c-59.81-4.72-76.21-80.55-79.78-103.19h119.65l41.38,385.84Z"/><path class="cls-30" d="M3065,2392a1.53,1.53,0,0,1-1.34-.78c-5.59-10-137.21-244.73-147.37-267.93-10-22.8-36.91-266.89-39.28-288.52-52.72-8.11-65.72-63.39-65.84-64a1.52,1.52,0,1,1,3-.67c.12.55,12.88,54.61,64.46,61.78a1.52,1.52,0,0,1,1.31,1.34c.29,2.65,29.15,265.87,39.18,288.79S3065,2387.25,3066.33,2389.7a1.52,1.52,0,0,1-.59,2.07A1.55,1.55,0,0,1,3065,2392Z"/><path class="cls-31" d="M2947.09,2370.56c15.63-7.09,78.24-37.78,104.91-85.27a3.22,3.22,0,0,1,5.6,0l38,66.52a3.23,3.23,0,0,1,.2,2.81c-4.08,10.26-31.29,70.15-111.46,73.16a3.28,3.28,0,0,1-2.8-1.39l-35.72-51A3.24,3.24,0,0,1,2947.09,2370.56Z"/><path class="cls-31" d="M2647.29,2362.6c15.1,4.14,75.16,18.35,141.63,3.94a2.82,2.82,0,0,1,3.44,2.75v79.32a2.8,2.8,0,0,1-1.9,2.67c-11.69,4-75.67,23.24-143.46-6.23a2.89,2.89,0,0,1-1.72-2.57l-1.55-77.08A2.83,2.83,0,0,1,2647.29,2362.6Z"/><path class="cls-32" d="M2714,1226.93l-23-25.22a3.12,3.12,0,0,0-4.63,0l-80,90a3.17,3.17,0,0,0-.77,1.75c-.74,7.11-4.52,49.34,10.25,50.21,15.73.92,83.84-85.21,98.59-113.18A3.12,3.12,0,0,0,2714,1226.93Z"/><polygon class="cls-33" points="2709.8 1239.74 2637.57 1302.22 2626.99 1270.14 2616.95 1239.74 2681.3 1189.3 2685.07 1196.01 2709.8 1239.74"/><path class="cls-24" d="M2685.07,1196c-.14.53-.32,1.08-.52,1.64-14,40.13-42.42,62.77-57.56,72.49l-10-30.4,64.35-50.44Z"/><path class="cls-33" d="M2545.53,1110.75a188,188,0,0,0-1,36.74l-20.14,28a4.12,4.12,0,0,0,1,5.77l16.69,11.8s-5.1,51.32,45.2,58.07,89.6-55.68,89.6-55.68l14.91-84.9s-49.45-118.75-129.47-35.07A62.62,62.62,0,0,0,2545.53,1110.75Z"/><path class="cls-34" d="M2552.56,1024.74c-6.39-.62-22.58,1.65-36,35.81a3.89,3.89,0,0,0,.24,3.33c5.18,9,33.82,51.34,108.18,42.37a3.88,3.88,0,0,1,4.29,3c1.35,6.26,6.08,19.85,22.37,31a3.87,3.87,0,0,1,1.65,2.51c1,6,4.92,26.74,8.82,29.54s33.12,3.2,41.68,3.26a3.84,3.84,0,0,0,3.44-2.08l32.08-61.16a43.68,43.68,0,0,0,4.91-23c-1.45-23.11-11.94-67-70.64-68.49a3.9,3.9,0,0,1-3.75-3.41,15.77,15.77,0,0,0-6.26-11,3.89,3.89,0,0,0-6.24,3.94c0,.08,0,.15.05.23a3.85,3.85,0,0,1-6,4c-7.9-5.48-23.13-14.79-39.61-18.15-21.64-4.42-45.53,1.93-55.36,26A3.83,3.83,0,0,1,2552.56,1024.74Z"/><path class="cls-24" d="M2679.4,1200.54s-15.15-3.46-16-22.58l18,15.69Z"/><ellipse class="cls-23" cx="2686.87" cy="1165.46" rx="32.26" ry="25.08" transform="translate(1331.45 3761.69) rotate(-85.88)"/><path class="cls-24" d="M2682.08,1185.29a1.65,1.65,0,0,1-1.46-.89c-10.24-19.94,2.44-33.6,2.57-33.74a1.63,1.63,0,1,1,2.37,2.25c-.46.49-11.18,12.18-2,30a1.64,1.64,0,0,1-1.45,2.38Z"/><ellipse class="cls-34" cx="2571.19" cy="1145.84" rx="7.37" ry="9.21" transform="translate(-34.37 80.48) rotate(-1.78)"/><path class="cls-34" d="M2562.45,1121.61s7.57-3.73,15.43-2.87c4.42.48,7.48,3.64,9.3,6.3a3.12,3.12,0,0,1-2.53,4.86,12.22,12.22,0,0,1-7.46-2.77C2570.77,1122.19,2560.28,1125.82,2562.45,1121.61Z"/><ellipse class="cls-35" cx="2611.82" cy="1168.99" rx="30.76" ry="27.65" transform="translate(1011.72 3541.3) rotate(-80.11)"/><path class="cls-36" d="M2555.36,1207l25.57-3S2575.08,1234.07,2555.36,1207Z"/><path class="cls-23" d="M2399,1363.24l-28.47-59.65s-23.41-37.06-28.46-47L2323,1219.16a4.84,4.84,0,0,0-8.1-.81c-4.13,5.1-7.64,15.84,1.46,37.34L2290,1284.77a8.16,8.16,0,0,0-2.1,5.46v11.1l-7.57,19.81a8.14,8.14,0,0,0,2,8.77l6.49,6.21v9s16.27,15.37,19.43,14.91a56,56,0,0,1,9,0s14,16.26,19.21,23.94,34.57,10.85,34.57,10.85S2404.44,1390.8,2399,1363.24Z"/><path class="cls-24" d="M2363.18,1369.67a1.37,1.37,0,0,1-.68-.17c-24-12.6-27-39.28-29.19-58.77-.32-2.77-.61-5.41-.95-7.84-2.65-19-17.32-46.23-17.46-46.51a1.46,1.46,0,1,1,2.57-1.39c.61,1.14,15.07,28,17.78,47.49.34,2.46.64,5.12,1,7.93,2.12,18.83,5,44.62,27.64,56.51a1.46,1.46,0,0,1,.62,2A1.47,1.47,0,0,1,2363.18,1369.67Z"/><path class="cls-24" d="M2325.47,1352.16s19.17,4.3,25.56,8.86c0,0-14-23.32-15.77-43.77l-6.75,11.41Z"/><polygon class="cls-24" points="2305.3 1314.87 2317 1311.17 2312.02 1320.01 2305.3 1314.87"/><path class="cls-24" d="M2301.72,1316.8c-4.23,0-10.43-15.7-14.89-28.87a1.46,1.46,0,0,1,2.77-.94c4.15,12.28,10,26,12.25,26.91,2.6,0,20.63-7.7,31.35-12.55a1.46,1.46,0,1,1,1.2,2.67C2329.68,1306.15,2305.89,1316.8,2301.72,1316.8Z"/><path class="cls-24" d="M2310.75,1345.57a15,15,0,0,1-5.69-1.13l-17-7a1.46,1.46,0,1,1,1.11-2.71l17,7a12,12,0,0,0,14.78-4.8l13.24-21.38a1.46,1.46,0,0,1,2.48,1.54l-13.24,21.38A14.88,14.88,0,0,1,2310.75,1345.57Z"/><path class="cls-24" d="M2317.22,1361.55a1.47,1.47,0,0,1-.53-2.83,13.36,13.36,0,0,0,7.4-9.15c1.8-7.45,2.71-21.62,2.72-21.76a1.53,1.53,0,0,1,1.54-1.37,1.46,1.46,0,0,1,1.37,1.55c0,.59-.93,14.57-2.79,22.26a16.33,16.33,0,0,1-9.18,11.19A1.4,1.4,0,0,1,2317.22,1361.55Z"/><path class="cls-24" d="M2312,1322.3a1.44,1.44,0,0,1-.87-.29l-8-6a1.46,1.46,0,1,1,1.74-2.34l6.52,4.85a28.57,28.57,0,0,1,9.4-11.74,1.45,1.45,0,0,1,2,.44,1.47,1.47,0,0,1-.43,2,26.71,26.71,0,0,0-9,12.1,1.44,1.44,0,0,1-1,.87A1.39,1.39,0,0,1,2312,1322.3Z"/><path class="cls-24" d="M2307.24,1296.31a1.45,1.45,0,0,1-1.24-.7,1.46,1.46,0,0,1,.48-2c13.61-8.33,24.63-4.37,25.09-4.19a1.46,1.46,0,0,1-1,2.73c-.1,0-10.2-3.61-22.55,4A1.48,1.48,0,0,1,2307.24,1296.31Z"/><polygon class="cls-24" points="2287.2 1286.41 2301.36 1272.19 2289.87 1287.78 2287.2 1286.41"/><path class="cls-24" d="M2317.47,1255s-5.6-13.4-5.73-20.4.23-12,1.68-14.14c0,0-8,9.72,1.31,35.41Z"/><path class="cls-24" d="M2289.17,1334.77l-7.51-8.69s-1.17-6.4,1-11.21c0,0-4.63,6.41-3.35,12.75,0,0,7.66,9.25,8.38,9.63S2289.17,1334.77,2289.17,1334.77Z"/><path class="cls-24" d="M2316.69,1358.72s-7.1.9-8.83.32-12.69-8.07-12.69-8.07,8.94,8.48,10.76,9.74,11.82.73,11.82.73Z"/><path class="cls-37" d="M2744.33,1328.55a686.21,686.21,0,0,1-41.59,86.35c-37.2,65.14-96.57,142-166.52,134.09-30.37-3.43-57.2-14.06-80.34-28-67.93-40.89-104-110.4-104-110.4,9.72-47.62,56.44-62.62,56.44-62.62,15.88,14.12,89.95,67,89.95,67,8.82-9.69,17.63,0,17.63,0l73-60.77,22.28-18.57a252,252,0,0,1,24.4-16.11C2715.68,1273.45,2744.33,1328.55,2744.33,1328.55Z"/><path class="cls-38" d="M2702.74,1414.9c-37.2,65.14-96.57,142-166.52,134.09-30.37-3.43-57.2-14.06-80.34-28,49.32.46,92.16-11.51,106.15-53.4,18.9-56.6,26.86-113.38,26.86-113.38l22.28-18.57a252,252,0,0,1,24.4-16.11Z"/><path class="cls-39" d="M2662,1271.82l59.76-33.77s56.12,19.83,110.88,103.46,110.5,281.74,107.52,422.11c0,0-153.32,15.93-295.68,0,0,0,7-177.21-9.95-240.92s-13.94-204.09-13.94-204.09Z"/><path class="cls-40" d="M2721.33,1234.48l-23-25.22a3.11,3.11,0,0,0-4.63,0l-80,90a3.14,3.14,0,0,0-.77,1.75c-.74,7.1-4.52,49.33,10.24,50.2,15.74.93,83.84-85.21,98.59-113.17A3.12,3.12,0,0,0,2721.33,1234.48Z"/><path class="cls-37" d="M2863.92,1623.3c-26.77,40.27-174.16,176.21-174.16,176.21a124,124,0,0,1-26.13-13.51c-34.94-24.07-37.78-56.59-37.78-56.59l101-126.76c-7.2-12.39,0-18.57,0-18.57l-34-136c-25.75-115.43,34-137.51,34-137.51,44.35-8.67,70.09,11.77,94.84,58.14C2841.19,1405.26,2890.72,1583.05,2863.92,1623.3Z"/><path class="cls-38" d="M2863.92,1623.3c-26.77,40.27-174.16,176.21-174.16,176.21a124,124,0,0,1-26.13-13.51c6.24-4.45,126.72-123.29,152.79-154.13,26.77-31.69,18.8-160.06-5.28-245s-84.3-76.33-84.3-76.33c44.35-8.67,70.09,11.77,94.84,58.14C2841.19,1405.26,2890.72,1583.05,2863.92,1623.3Z"/><path class="cls-20" d="M3130.29,1112.59s47.95-123.35,142.31-123.26c112.27.1,80.37,140.84,80.37,140.84h-50s25.17-89.4-31.18-95.7-100.45,95.7-100.45,95.7S3099.8,1145.14,3130.29,1112.59Z"/><path class="cls-41" d="M3414.61,1102.55l37.22,49.4a29.05,29.05,0,0,1,5.71,20.41c-6.93,67.47-59.9,409.17-424.41,447.78a45.14,45.14,0,0,1-33-9.79l-41.45-33.23Z"/><path class="cls-42" d="M3058.42,1102.55s208.34,19.94,356.19,0c0,0-30.25,455-455.88,474.57,0,0-49.2-34.54-52-166.71C2906.69,1410.41,3028.18,1249.05,3058.42,1102.55Z"/><path class="cls-13" d="M3155.82,1339.83s-5,12.59-14,30c-16,31.16-44.6,77.74-79.63,95,0,0-26.86,12.22-24.42-14.67,0,0,65.94-73.29,70-116.43,0,0-27.32-40.21,10.94-92.84,34.57-47.53,78.63-44,93.26-21.15a22.71,22.71,0,0,1,1.53,2.71C3225.79,1247.51,3213,1312,3155.82,1339.83Z"/><path class="cls-20" d="M3155.82,1339.83s-5,12.59-14,30c0,0-20.61-3.3,5.28-47.78,0,0-16.5-69.2,66.43-99.63C3225.79,1247.51,3213,1312,3155.82,1339.83Z"/><circle class="cls-36" cx="2989.59" cy="1102.55" r="95.61"/><path class="cls-13" d="M2958.69,1096.59l20.13,19.11a3.25,3.25,0,0,0,5-.83l54.35-97.3a11.86,11.86,0,0,1,15.65-4.83l9.18,4.59a11.85,11.85,0,0,1,5.11,16.3L3003.7,1151.4a18.12,18.12,0,0,1-27.93,4.83l-38-34.88a11.34,11.34,0,0,1-1.58-15.22l5.81-7.86A11.36,11.36,0,0,1,2958.69,1096.59Z"/><path class="cls-43" d="M2987.78,1162.28a19.44,19.44,0,0,1-13-5l-38.05-34.89a12.74,12.74,0,0,1-1.77-17.17l5.82-7.86a12.8,12.8,0,0,1,18.87-1.9l0,0,20.13,19.11a1.74,1.74,0,0,0,1.47.41,1.76,1.76,0,0,0,1.27-.89l54.35-97.3a13.32,13.32,0,0,1,17.59-5.43l9.18,4.59a13.32,13.32,0,0,1,5.73,18.31L3005,1152.1a19.47,19.47,0,0,1-13.84,9.89A19.18,19.18,0,0,1,2987.78,1162.28Zm-36.69-67.14a7.94,7.94,0,0,0-1,0,9.92,9.92,0,0,0-7,4l-5.81,7.86a9.84,9.84,0,0,0,1.37,13.26l38.05,34.89a16.64,16.64,0,0,0,25.66-4.46l64.43-117.76a10.4,10.4,0,0,0-4.47-14.29l-9.18-4.59a10.39,10.39,0,0,0-13.72,4.24l-54.35,97.3a4.73,4.73,0,0,1-7.29,1.2l-20.14-19.12A9.89,9.89,0,0,0,2951.09,1095.14Z"/><rect class="cls-44" x="2499.68" y="431.58" width="637.49" height="366.71" rx="27.57"/><rect class="cls-45" x="2520.83" y="431.58" width="637.49" height="366.71" rx="27.57"/><circle class="cls-20" cx="2611.9" cy="512.52" r="47.97"/><circle class="cls-46" cx="2667.28" cy="512.52" r="47.97"/><rect class="cls-13" x="2989.59" y="472.38" width="118.36" height="75.67" rx="13.52"/><rect class="cls-13" x="2571.22" y="651.11" width="536.73" height="36.53" rx="18.26"/><rect class="cls-13" x="2571.22" y="723.43" width="144.03" height="24.09" rx="12.05"/><rect class="cls-13" x="2740.66" y="723.43" width="84.06" height="24.09" rx="12.05"/><rect class="cls-13" x="2849.08" y="723.43" width="144.03" height="24.09" rx="12.05"/><rect class="cls-47" x="1222.31" y="1577.11" width="324.81" height="200.09" rx="19.15"/><rect class="cls-13" x="1270.76" y="1477.9" width="227.92" height="227.92" rx="11.27"/><path class="cls-48" d="M1487.41,1707.29H1282a12.75,12.75,0,0,1-12.74-12.74V1489.17a12.75,12.75,0,0,1,12.74-12.73h205.38a12.75,12.75,0,0,1,12.74,12.73v205.38A12.75,12.75,0,0,1,1487.41,1707.29ZM1282,1479.37a9.81,9.81,0,0,0-9.81,9.8v205.38a9.82,9.82,0,0,0,9.81,9.81h205.38a9.82,9.82,0,0,0,9.81-9.81V1489.17a9.81,9.81,0,0,0-9.81-9.8Z"/><rect class="cls-48" x="1297.99" y="1527.89" width="173.46" height="6.83" rx="3.42"/><rect class="cls-48" x="1297.99" y="1559.63" width="173.46" height="6.83" rx="3.42"/><rect class="cls-48" x="1297.99" y="1591.38" width="173.46" height="6.83" rx="3.42"/><rect class="cls-48" x="1297.99" y="1623.12" width="173.46" height="6.83" rx="3.42"/><path class="cls-12" d="M1547.12,1606.89v151.17a19.14,19.14,0,0,1-19.13,19.16H1241.45a19.1,19.1,0,0,1-18.25-13.42,18.53,18.53,0,0,1-.88-5.74V1606.89l62.18,46a40.75,40.75,0,0,0,24.23,8h152a40.75,40.75,0,0,0,24.23-8l50.61-37.49Z"/><path class="cls-49" d="M1547.12,1606.89v151.17a19.14,19.14,0,0,1-19.13,19.16H1241.45a19.1,19.1,0,0,1-18.25-13.42c63.85.68,255.32,1.35,286.49-13.41,30.55-14.47,27.91-102.75,25.86-134.94Z"/><path class="cls-50" d="M1803.53,577.12h382.23a31.13,31.13,0,0,0,30.84-26.89c4.21-30.8.26-78.61-60.4-91,0,0-38.58-100.29-143.27-99.19s-134.46,91.47-134.46,91.47-108.61-5.57-106,95.74C1772.87,563.93,1786.82,577.12,1803.53,577.12Z"/><path class="cls-13" d="M2065.13,508.9h-30.37v68.23h-44.45V508.9h-30.4a4.71,4.71,0,0,1-3.35-8l48.51-49a10.49,10.49,0,0,1,14.9,0l48.51,49A4.72,4.72,0,0,1,2065.13,508.9Z"/></g></svg>