<svg xmlns="http://www.w3.org/2000/svg" viewBox="0 0 4680 3120"><defs><style>.cls-1,.cls-10{fill:#fff;}.cls-1{opacity:0;}.cls-2{fill:#e3f0fc;}.cls-3{fill:#64afc6;}.cls-4{fill:#b9ddfc;}.cls-5{fill:#a0d7f9;}.cls-6{fill:#ed3e60;}.cls-7{fill:#931b32;}.cls-8{fill:#ca2d46;}.cls-9{fill:#ea5d78;}.cls-11{fill:#1543a3;}.cls-12{fill:#416ac4;}.cls-13{fill:#b5dbfe;}.cls-14{fill:#6c95dd;}.cls-15{fill:#4a7cd3;}.cls-16{fill:#d7edff;}.cls-17{fill:#1f77b2;}.cls-18{fill:#fc7900;}.cls-19{fill:#ff9639;}.cls-20{opacity:0.6;}.cls-21{fill:#8bc3f2;}.cls-22{opacity:0.5;}.cls-23{fill:#e3f2ff;}.cls-24{fill:#fcae3d;}.cls-25{fill:#fe973a;}.cls-26{fill:#33a3e2;}.cls-27{fill:#1f7fdd;}.cls-28{fill:#234f9e;}.cls-29{fill:#4368b6;}.cls-30{fill:#bdd5ff;}.cls-31{fill:#ffd7d7;}.cls-32{fill:#574d4e;}.cls-33{fill:#493f40;}.cls-34{fill:#f7adad;}.cls-35{fill:#821932;}.cls-36{fill:#f49d9d;}.cls-37{fill:#680b26;}.cls-38{fill:#f9882b;}.cls-39{fill:#663636;}.cls-40{fill:#72142e;}.cls-41{fill:#ffa4a4;}.cls-42{fill:#a5193b;}.cls-43{fill:#911337;}.cls-44{fill:#151b3d;}.cls-45{fill:#ffdc8d;}.cls-46{fill:#83cadd;}.cls-47{fill:#64a9c6;}.cls-48{fill:#4d9fbc;}.cls-49{opacity:0.65;}.cls-50{fill:#c1dbf4;}.cls-51{fill:#c9e9f4;}.cls-52{fill:#4192bf;}.cls-53{fill:#b21936;}.cls-54{fill:#e24261;}.cls-55{fill:#69cdf9;}.cls-56{fill:#1fa1db;}.cls-57{fill:#0e82c9;}.cls-58{fill:#64b3f4;}</style></defs><title>03</title><g id="_3" data-name="3"><rect class="cls-1" width="4680" height="3120"/><path class="cls-2" d="M3444.82,1131c0,219.46-152.18,413.46-385.13,530.77-71.68,220-328.55,382.88-634.42,382.88-361.44,0-654.4-227.33-654.4-507.77a400.73,400.73,0,0,1,4.23-58.09C1685.77,1378.32,1634,1259,1634,1131c0-358.16,405.36-648.49,905.4-648.49S3444.82,772.86,3444.82,1131Z"/><path class="cls-3" d="M1485.73,2018.84h-.2a3.39,3.39,0,0,1-3.18-3.57,185.24,185.24,0,0,1,2.09-20.34,3.38,3.38,0,0,1,6.65,1.19,188.4,188.4,0,0,0-2,19.54A3.38,3.38,0,0,1,1485.73,2018.84Z"/><path class="cls-3" d="M3041,2385.83h-27.37a3.38,3.38,0,0,1,0-6.76H3041c4.26,0,8.58-.07,12.82-.21a3.32,3.32,0,0,1,3.49,3.27,3.38,3.38,0,0,1-3.27,3.49C3049.69,2385.76,3045.3,2385.83,3041,2385.83Zm-67.66,0H2933a3.38,3.38,0,0,1,0-6.76h40.3a3.38,3.38,0,0,1,0,6.76Zm-80.6,0h-40.3a3.38,3.38,0,0,1,0-6.76h40.3a3.38,3.38,0,1,1,0,6.76Zm-80.6,0h-40.29a3.38,3.38,0,0,1,0-6.76h40.29a3.38,3.38,0,1,1,0,6.76Zm-80.59,0h-40.3a3.38,3.38,0,0,1,0-6.76h40.3a3.38,3.38,0,0,1,0,6.76Zm-80.59,0h-40.3a3.38,3.38,0,1,1,0-6.76h40.3a3.38,3.38,0,1,1,0,6.76Zm-80.6,0H2530a3.38,3.38,0,1,1,0-6.76h40.3a3.38,3.38,0,1,1,0,6.76Zm-80.6,0h-40.29a3.38,3.38,0,1,1,0-6.76h40.29a3.38,3.38,0,1,1,0,6.76Zm-80.59,0h-40.3a3.38,3.38,0,1,1,0-6.76h40.3a3.38,3.38,0,1,1,0,6.76Zm-80.6,0h-40.29a3.38,3.38,0,1,1,0-6.76h40.29a3.38,3.38,0,1,1,0,6.76Zm-80.59,0h-40.3a3.38,3.38,0,1,1,0-6.76h40.3a3.38,3.38,0,1,1,0,6.76Zm-80.6,0H2127a3.38,3.38,0,0,1,0-6.76h40.3a3.38,3.38,0,1,1,0,6.76Zm-80.59,0h-40.3a3.38,3.38,0,0,1,0-6.76h40.3a3.38,3.38,0,1,1,0,6.76Zm-80.6,0h-40.29a3.38,3.38,0,1,1,0-6.76h40.29a3.38,3.38,0,1,1,0,6.76Zm-80.59,0h-40.3a3.38,3.38,0,1,1,0-6.76h40.3a3.38,3.38,0,1,1,0,6.76ZM3094,2382.19a3.38,3.38,0,0,1-.46-6.73,386.62,386.62,0,0,0,39.24-7.51,3.38,3.38,0,0,1,1.61,6.57,391.75,391.75,0,0,1-39.92,7.64Zm-1248.67-1.69a3.64,3.64,0,0,1-.57,0c-13.52-2.3-26.87-4.91-39.68-7.77a3.38,3.38,0,1,1,1.48-6.6c12.69,2.83,25.92,5.43,39.33,7.7a3.38,3.38,0,0,1-.56,6.71ZM3172.19,2363a3.39,3.39,0,0,1-1.15-6.57,383.71,383.71,0,0,0,36.82-15.46,3.38,3.38,0,1,1,2.94,6.09,387.47,387.47,0,0,1-37.47,15.73A3.24,3.24,0,0,1,3172.19,2363Zm-1405.34-.1a3.79,3.79,0,0,1-.94-.12c-13.2-3.78-26.16-8-38.53-12.42a3.38,3.38,0,0,1,2.3-6.36c12.22,4.41,25,8.54,38.09,12.27a3.38,3.38,0,0,1-.92,6.63Zm-75.63-27.43a3.4,3.4,0,0,1-1.38-.3c-12.55-5.67-24.73-11.82-36.19-18.29A3.38,3.38,0,0,1,1657,2311c11.29,6.37,23.28,12.43,35.65,18a3.39,3.39,0,0,1-1.4,6.47ZM3244.65,2328a3.38,3.38,0,0,1-1.78-6.26,382.86,382.86,0,0,0,32.79-22.75,3.38,3.38,0,1,1,4.14,5.34,385.19,385.19,0,0,1-33.38,23.16A3.38,3.38,0,0,1,3244.65,2328Zm-1623.36-32.2a3.34,3.34,0,0,1-2-.62,359.28,359.28,0,0,1-31.81-25.26,3.38,3.38,0,0,1,4.5-5,354.13,354.13,0,0,0,31.21,24.78,3.38,3.38,0,0,1-2,6.14Zm1686.93-17.07a3.38,3.38,0,0,1-2.34-5.82,376.94,376.94,0,0,0,27.28-29.11,3.38,3.38,0,0,1,5.17,4.35,383,383,0,0,1-27.77,29.64A3.36,3.36,0,0,1,3308.22,2278.72Zm-1746.76-36.54a3.37,3.37,0,0,1-2.55-1.16,312.28,312.28,0,0,1-24.71-32.32,3.38,3.38,0,1,1,5.63-3.74,304.71,304.71,0,0,0,24.18,31.61,3.39,3.39,0,0,1-2.55,5.61Zm1798.51-25a3.34,3.34,0,0,1-1.88-.57,3.39,3.39,0,0,1-.92-4.7,373.78,373.78,0,0,0,20.45-34.22,3.38,3.38,0,1,1,6,3.15,379.34,379.34,0,0,1-20.82,34.85A3.37,3.37,0,0,1,3360,2217.2Zm-1843-41.92a3.39,3.39,0,0,1-3-1.9,312.34,312.34,0,0,1-15.39-37.69,3.38,3.38,0,1,1,6.42-2.14,305,305,0,0,0,15,36.87,3.38,3.38,0,0,1-1.55,4.52A3.44,3.44,0,0,1,1517,2175.28Zm1880.42-29.21a3.43,3.43,0,0,1-1.25-.24,3.39,3.39,0,0,1-1.9-4.39c1.81-4.57,3.56-9.26,5.2-13.94,2.91-8.33,5.48-16.14,7.85-23.88a3.38,3.38,0,1,1,6.46,2c-2.39,7.83-5,15.72-7.93,24.13-1.67,4.77-3.45,9.55-5.29,14.2A3.39,3.39,0,0,1,3397.43,2146.07Zm-1905.95-47a3.39,3.39,0,0,1-3.32-2.73,334.91,334.91,0,0,1-5.44-40.35,3.38,3.38,0,1,1,6.75-.49,323.38,323.38,0,0,0,5.33,39.53,3.38,3.38,0,0,1-2.66,4A3.09,3.09,0,0,1,1491.48,2099.05Zm1929.37-30a3,3,0,0,1-.73-.08,3.38,3.38,0,0,1-2.57-4c2.9-13.14,5.17-26,6.94-39.38a3.38,3.38,0,1,1,6.7.89c-1.79,13.55-4.1,26.62-7,40A3.38,3.38,0,0,1,3420.85,2069.05Zm10.63-79.78h-.17a3.39,3.39,0,0,1-3.21-3.55c.49-9.44.73-19.24.73-29.11,0-3.6,0-7.24-.1-10.94a3.38,3.38,0,0,1,3.33-3.44h.06a3.38,3.38,0,0,1,3.38,3.32q.09,5.61.09,11.06c0,10-.25,19.89-.73,29.45A3.39,3.39,0,0,1,3431.48,1989.27Zm-1.56-80.64a3.37,3.37,0,0,1-3.35-3,348.53,348.53,0,0,0-7.16-39.38,3.38,3.38,0,0,1,6.57-1.57,354.28,354.28,0,0,1,7.3,40.15,3.37,3.37,0,0,1-3,3.75A2.83,2.83,0,0,1,3429.92,1908.63Zm-18.61-78.48a3.38,3.38,0,0,1-3.19-2.26,381.26,381.26,0,0,0-15.16-37,3.38,3.38,0,1,1,6.11-2.89,389.65,389.65,0,0,1,15.43,37.64,3.38,3.38,0,0,1-3.19,4.5Zm-34.47-72.76a3.4,3.4,0,0,1-2.89-1.6,343.31,343.31,0,0,0-22.82-32.72,3.38,3.38,0,0,1,5.31-4.18,351.72,351.72,0,0,1,23.27,33.35,3.37,3.37,0,0,1-2.87,5.15Zm-49.81-63.1a3.36,3.36,0,0,1-2.39-1,332.58,332.58,0,0,0-29.86-26.35,3.38,3.38,0,1,1,4.16-5.33,338.72,338.72,0,0,1,30.47,26.89,3.39,3.39,0,0,1-2.38,5.78Zm-63.29-49.45a3.32,3.32,0,0,1-1.75-.49,361.92,361.92,0,0,0-35.16-18.71,3.38,3.38,0,1,1,2.84-6.13,368,368,0,0,1,35.83,19.06,3.38,3.38,0,0,1-1.76,6.27ZM3191,1611a3.22,3.22,0,0,1-1.1-.19c-12.29-4.23-25.17-8-38.28-11.22a3.38,3.38,0,0,1,1.61-6.57c13.31,3.26,26.39,7.1,38.87,11.4a3.38,3.38,0,0,1-1.1,6.58Zm-78-19.24a3.27,3.27,0,0,1-.53,0c-12.83-2.05-26.18-3.68-39.68-4.85a3.38,3.38,0,0,1,.59-6.74c13.66,1.19,27.17,2.84,40.15,4.92a3.38,3.38,0,0,1-.53,6.72Zm-80.12-7.07h-.08l-2.08,0c-11.52-.23-24-.41-38.26-.55a3.38,3.38,0,0,1,0-6.76h0c14.25.14,26.78.31,38.33.55l2.1,0a3.38,3.38,0,0,1-.08,6.76Zm-80.77-.84h0q-19.64-.07-40.37-.1a3.38,3.38,0,1,1,0-6.76h0q20.73,0,40.38.1a3.38,3.38,0,0,1,0,6.76Zm-80.75-.17h0q-19.8,0-40.38-.14a3.38,3.38,0,0,1,0-6.76h0q20.55.09,40.36.14a3.38,3.38,0,0,1,0,6.76Zm-80.73-.41h0q-19.93-.18-40.38-.47a3.39,3.39,0,0,1-3.33-3.43,3.32,3.32,0,0,1,3.43-3.34q20.42.3,40.34.48a3.38,3.38,0,0,1,0,6.76Zm-80.71-1.2h-.07q-20-.42-40.37-1a3.38,3.38,0,0,1-3.28-3.48,3.43,3.43,0,0,1,3.48-3.28q20.32.6,40.31,1a3.38,3.38,0,0,1-.07,6.76Zm-80.66-2.38h-.13c-13.7-.53-27.27-1.12-40.35-1.76a3.38,3.38,0,1,1,.33-6.75c13.05.64,26.61,1.23,40.27,1.75a3.38,3.38,0,0,1-.12,6.76Zm-80.61-4h-.2c-13.59-.82-27.11-1.72-40.19-2.67a3.38,3.38,0,1,1,.49-6.75c13.05,1,26.54,1.85,40.1,2.67a3.38,3.38,0,0,1-.2,6.75Zm-80.33-5.87-.3,0c-13.58-1.18-27.12-2.46-40.26-3.81a3.38,3.38,0,1,1,.69-6.73c13.1,1.35,26.61,2.63,40.16,3.81a3.38,3.38,0,0,1-.29,6.75Zm-80.43-8.29a2.68,2.68,0,0,1-.4,0c-13.55-1.63-27-3.37-40.07-5.18a3.38,3.38,0,0,1,.93-6.7c13,1.81,26.44,3.54,39.94,5.17a3.38,3.38,0,0,1-.4,6.73Zm-79.9-11.14a3.35,3.35,0,0,1-.54,0c-13.47-2.16-26.87-4.46-39.83-6.85a3.38,3.38,0,0,1,1.23-6.65c12.91,2.38,26.26,4.67,39.67,6.82a3.38,3.38,0,0,1-.53,6.72Zm-79.32-14.63a3.42,3.42,0,0,1-.7-.08c-13.36-2.81-26.62-5.8-39.44-8.88a3.38,3.38,0,0,1,1.59-6.58c12.74,3.07,25.95,6,39.25,8.85a3.38,3.38,0,0,1-.7,6.69Zm-78.39-18.91a3.11,3.11,0,0,1-.9-.13c-13.21-3.62-26.26-7.46-38.8-11.39a3.38,3.38,0,0,1,2-6.45c12.47,3.91,25.44,7.72,38.57,11.32a3.39,3.39,0,0,1-.89,6.65Zm-76.91-24.18a3.47,3.47,0,0,1-1.14-.2c-12.91-4.63-25.62-9.51-37.77-14.5a3.38,3.38,0,0,1,2.57-6.26c12.05,5,24.66,9.8,37.48,14.39a3.38,3.38,0,0,1-1.14,6.57Zm-74.49-30.7a3.36,3.36,0,0,1-1.44-.33c-12.42-5.87-24.55-12.05-36.08-18.36a3.38,3.38,0,0,1,3.25-5.93c11.41,6.25,23.43,12.36,35.72,18.18a3.38,3.38,0,0,1-1.45,6.44Zm-70.54-38.75a3.36,3.36,0,0,1-1.82-.54c-11.57-7.38-22.77-15.13-33.29-23a3.38,3.38,0,1,1,4.06-5.4c10.38,7.8,21.44,15.45,32.87,22.74a3.39,3.39,0,0,1-1.82,6.24Zm-64.18-48.37a3.34,3.34,0,0,1-2.25-.86c-10.19-9.11-19.91-18.66-28.89-28.37a3.38,3.38,0,1,1,5-4.59c8.84,9.56,18.41,19,28.43,27.92a3.38,3.38,0,0,1-2.25,5.9Zm-54.35-58.94a3.37,3.37,0,0,1-2.71-1.35,377.56,377.56,0,0,1-22.51-33.64,3.38,3.38,0,0,1,5.82-3.45,369.78,369.78,0,0,0,22.1,33,3.37,3.37,0,0,1-.67,4.73A3.41,3.41,0,0,1,1809.76,1315.92ZM1768.93,1247a3.37,3.37,0,0,1-3.08-2,373.52,373.52,0,0,1-14.65-37.71,3.38,3.38,0,0,1,6.43-2.1,365.54,365.54,0,0,0,14.38,37,3.38,3.38,0,0,1-3.08,4.78Zm-25-76.06a3.38,3.38,0,0,1-3.3-2.67c-2.81-12.94-5.05-26.38-6.67-39.93a3.38,3.38,0,1,1,6.72-.8c1.59,13.34,3.79,26.56,6.55,39.3a3.38,3.38,0,0,1-2.58,4A3.61,3.61,0,0,1,1743.93,1171Zm-9.57-79.78a3.37,3.37,0,0,1-3.38-3.34c0-.7,0-1.48,0-2.32a325.8,325.8,0,0,1,2.49-38.45,3.38,3.38,0,1,1,6.71.81,318.82,318.82,0,0,0-2.44,37.65c0,.82,0,1.56,0,2.23a3.38,3.38,0,0,1-3.34,3.42Zm9.33-80.09a3.16,3.16,0,0,1-.74-.08,3.38,3.38,0,0,1-2.56-4c3-13.19,6.63-26.37,10.87-39.18a3.38,3.38,0,0,1,6.42,2.13c-4.18,12.6-7.77,25.56-10.69,38.53A3.38,3.38,0,0,1,1743.69,1011.1Zm25.37-76.42a3.24,3.24,0,0,1-1.38-.3,3.38,3.38,0,0,1-1.71-4.46,405,405,0,0,1,18.46-36.2,3.38,3.38,0,0,1,5.86,3.38,395.1,395.1,0,0,0-18.14,35.58A3.39,3.39,0,0,1,1769.06,934.68ZM1809.25,865a3.38,3.38,0,0,1-2.74-5.36A399.75,399.75,0,0,1,1832,828a3.39,3.39,0,0,1,5,4.51,392.37,392.37,0,0,0-25,31.08A3.35,3.35,0,0,1,1809.25,865Zm53.52-60a3.38,3.38,0,0,1-2.29-5.87c9.83-9,20.32-17.74,31.17-25.94a3.38,3.38,0,1,1,4.08,5.39c-10.69,8.08-21,16.67-30.68,25.53A3.35,3.35,0,0,1,1862.77,805Zm64.08-48.51a3.38,3.38,0,0,1-1.79-6.25c11.24-7,23.09-13.74,35.22-20a3.39,3.39,0,0,1,3.1,6c-12,6.17-23.66,12.8-34.74,19.72A3.34,3.34,0,0,1,1926.85,756.49Zm71.41-36.92a3.38,3.38,0,0,1-1.32-6.49c12.15-5.16,24.85-10,37.76-14.52a3.38,3.38,0,1,1,2.22,6.39c-12.77,4.43-25.33,9.25-37.34,14.35A3.43,3.43,0,0,1,1998.26,719.57Zm76-26.43a3.38,3.38,0,0,1-.91-6.64c12.69-3.55,25.89-6.85,39.22-9.81a3.38,3.38,0,1,1,1.46,6.6c-13.21,2.93-26.28,6.2-38.86,9.72A3.18,3.18,0,0,1,2074.21,693.14Zm78.53-17.5a3.38,3.38,0,0,1-.57-6.72c13-2.22,26.46-4.21,40-5.91a3.38,3.38,0,1,1,.84,6.71c-13.43,1.69-26.79,3.67-39.69,5.87A3.66,3.66,0,0,1,2152.74,675.64Zm79.87-10.5a3.38,3.38,0,0,1-.38-6.74q20.25-2.34,40-4.71a3.38,3.38,0,0,1,.81,6.71q-19.77,2.39-40,4.72Zm80-9.63a3.38,3.38,0,0,1-.42-6.74q20.25-2.55,39.94-5.14a3.38,3.38,0,1,1,.89,6.7q-19.71,2.59-40,5.15Zm79.9-10.53a3.38,3.38,0,0,1-.46-6.73q20.25-2.81,39.88-5.64a3.38,3.38,0,0,1,1,6.69q-19.63,2.85-39.92,5.65A3.55,3.55,0,0,1,2392.53,645Zm79.75-11.56a3.38,3.38,0,0,1-.5-6.73q20.25-3.08,39.79-6.21a3.38,3.38,0,1,1,1.07,6.67q-19.57,3.14-39.84,6.23A4.73,4.73,0,0,1,2472.28,633.42Zm79.57-12.78a3.38,3.38,0,0,1-.55-6.71c13.36-2.26,26.7-4.59,39.66-6.91a3.38,3.38,0,1,1,1.19,6.66c-13,2.32-26.34,4.65-39.73,6.92A3.64,3.64,0,0,1,2551.85,620.64Zm79.33-14.22a3.38,3.38,0,0,1-.63-6.7c13.41-2.55,26.7-5.16,39.51-7.76a3.38,3.38,0,0,1,1.34,6.63c-12.84,2.6-26.15,5.21-39.58,7.77A3.55,3.55,0,0,1,2631.18,606.42Zm79-16a3.38,3.38,0,0,1-.71-6.68c13.38-2.9,26.59-5.87,39.26-8.83a3.38,3.38,0,0,1,1.54,6.59c-12.71,3-25.95,5.94-39.37,8.85A3.51,3.51,0,0,1,2710.16,590.39Zm78.47-18.33a3.38,3.38,0,0,1-.82-6.66c13.4-3.39,26.49-6.84,38.89-10.27a3.38,3.38,0,1,1,1.8,6.52c-12.45,3.44-25.58,6.91-39,10.3A3.46,3.46,0,0,1,2788.63,572.06Zm77.66-21.51a3.38,3.38,0,0,1-1-6.61c13.3-4.06,26.16-8.21,38.23-12.35a3.38,3.38,0,0,1,2.19,6.4c-12.14,4.16-25.08,8.34-38.45,12.42A3.38,3.38,0,0,1,2866.29,550.55Zm76.18-26.25a3.38,3.38,0,0,1-1.24-6.53c13.18-5.19,25.57-10.5,36.82-15.78a3.38,3.38,0,1,1,2.88,6.12c-11.39,5.34-23.91,10.71-37.22,15.95A3.41,3.41,0,0,1,2942.47,524.3Z"/><path class="cls-3" d="M3016.36,488.92a3.38,3.38,0,0,1-1.75-6.27c5.92-3.58,11.48-7.23,16.54-10.84a3.38,3.38,0,1,1,3.93,5.5c-5.2,3.71-10.91,7.46-17,11.13A3.36,3.36,0,0,1,3016.36,488.92Z"/><path class="cls-4" d="M3440.84,2661.44a98.57,98.57,0,0,1-98.52,98.56H1289a98.5,98.5,0,0,1-97.23-82.77,96.68,96.68,0,0,1-1.29-15.79,98.52,98.52,0,0,1,98.52-98.52H3342.32A98.53,98.53,0,0,1,3440.84,2661.44Z"/><path class="cls-5" d="M3194.77,2578.71a98.52,98.52,0,0,1-98.52,98.52H1191.81a96.68,96.68,0,0,1-1.29-15.79,98.52,98.52,0,0,1,98.52-98.52H3193.48A96.68,96.68,0,0,1,3194.77,2578.71Z"/><path class="cls-6" d="M3375.17,2015.94v-147a82.75,82.75,0,0,0-82.75-82.75H3073.6a82.75,82.75,0,0,0-82.75,82.75v147a35.87,35.87,0,0,0,35.86,35.86h0a35.87,35.87,0,0,0,35.86-35.86V1895.58a35.85,35.85,0,0,1,35.85-35.85h161.82a35.86,35.86,0,0,1,35.86,35.85v120.36A35.86,35.86,0,0,0,3332,2051.8h7.36A35.87,35.87,0,0,0,3375.17,2015.94Z"/><path class="cls-7" d="M3367.78,2015.94v-147a82.75,82.75,0,0,0-82.75-82.75H3066.21a82.75,82.75,0,0,0-82.75,82.75v147a35.87,35.87,0,0,0,35.86,35.86h0a35.87,35.87,0,0,0,35.86-35.86V1895.58a35.85,35.85,0,0,1,35.85-35.85h161.82a35.86,35.86,0,0,1,35.86,35.85v120.36a35.86,35.86,0,0,0,35.85,35.86h7.36A35.87,35.87,0,0,0,3367.78,2015.94Z"/><path class="cls-6" d="M3394,2466.2c-49.93,34.76-122,60.85-207.85,59.16-1,0-2.06,0-3.1-.05-2.47.08-4.92.11-7.37.11-3.52,0-7,0-10.5-.06-79.34-1.38-146.05-26.4-193.08-59.16-152.43-106.3-155.61-335.44-151.14-420.07a34.09,34.09,0,0,1,34.06-32.28h656a34.08,34.08,0,0,1,34,32.28C3549.56,2130.76,3546.41,2359.9,3394,2466.2Z"/><path class="cls-8" d="M3379.17,2466.2c-47,32.76-113.71,57.78-193.05,59.16q-5.19.13-10.47.06c-2.45,0-4.93,0-7.4-.11-1.05,0-2.09.05-3.1.05-79.34-1.38-146.05-26.4-193.08-59.16-152.43-106.3-155.61-335.44-151.14-420.07a34.09,34.09,0,0,1,34.06-32.28h641.26a34.11,34.11,0,0,1,34.06,32.28C3534.78,2130.76,3531.63,2359.9,3379.17,2466.2Z"/><circle class="cls-9" cx="3183.01" cy="2257.58" r="157.06"/><path class="cls-10" d="M3244.39,2233.76a60.71,60.71,0,0,1-35.6,61.67v73.73a21.4,21.4,0,0,1-21.41,21.41h-6.74a21.4,21.4,0,0,1-21.41-21.41v-73.73a60.7,60.7,0,1,1,85.16-61.67Z"/><path class="cls-11" d="M2098.29,2592.24h926.46a54.25,54.25,0,0,0,54.17-53.76l157.86-1912a53.29,53.29,0,0,0-53.37-53.77H2257a54.26,54.26,0,0,0-54.17,53.77l-157.86,1912A53.28,53.28,0,0,0,2098.29,2592.24Z"/><path class="cls-12" d="M2004.54,2592.24H2931a54.25,54.25,0,0,0,54.17-53.76L3143,626.47a53.29,53.29,0,0,0-53.37-53.77H2163.2A54.26,54.26,0,0,0,2109,626.47l-157.85,1912A53.28,53.28,0,0,0,2004.54,2592.24Z"/><path class="cls-13" d="M3114,626.46,3088,941.4l-11.88,143.91v0l-30.65,371.26v0L3009.7,1889v0l-34.62,419.5-19,230a24.94,24.94,0,0,1-24.88,24.68H2004.75a24.46,24.46,0,0,1-24.49-24.68l18.63-225.76,22.52-272.78,9.15-110.61,47.25-572.42,34.62-419.45,25.67-311A24.91,24.91,0,0,1,2163,601.8h183.93l27.19,42.92A53.09,53.09,0,0,0,2419,669.38h354.85a54,54,0,0,0,45.29-24.66L2847,601.8h242.42A24.47,24.47,0,0,1,3114,626.46Z"/><path class="cls-14" d="M2650,640.08h-160.9a11.78,11.78,0,0,1-11.76-11.76v-4.06a11.78,11.78,0,0,1,11.76-11.76H2650a11.78,11.78,0,0,1,11.76,11.76v4.06A11.78,11.78,0,0,1,2650,640.08Zm-160.9-25a9.16,9.16,0,0,0-9.16,9.15v4.06a9.16,9.16,0,0,0,9.16,9.15H2650a9.15,9.15,0,0,0,9.15-9.15v-4.06a9.15,9.15,0,0,0-9.15-9.15Z"/><path class="cls-14" d="M2708.22,640.08h-18.35a11.77,11.77,0,0,1-11.75-11.76v-4.06a11.77,11.77,0,0,1,11.75-11.76h18.35A11.77,11.77,0,0,1,2720,624.26v4.06A11.77,11.77,0,0,1,2708.22,640.08Zm-18.35-25a9.16,9.16,0,0,0-9.15,9.15v4.06a9.16,9.16,0,0,0,9.15,9.15h18.35a9.16,9.16,0,0,0,9.16-9.15v-4.06a9.16,9.16,0,0,0-9.16-9.15Z"/><path class="cls-12" d="M3227.58,1001.69l-19.9,233.58a40.82,40.82,0,0,1-40.62,37.34h-14.18a14.56,14.56,0,0,1-14.53-15.84l2.4-28.09,21.87-257.05a14.83,14.83,0,0,1,14.74-13.57h10.17a40.18,40.18,0,0,1,40,43.63Z"/><path class="cls-15" d="M3203,961.13l-19.62,230.2a40.82,40.82,0,0,1-40.61,37.35h-2l21.87-257.05a14.83,14.83,0,0,1,14.74-13.57h10.17A40,40,0,0,1,3203,961.13Z"/><path class="cls-16" d="M2956.09,2538.48a24.94,24.94,0,0,1-24.88,24.68H2004.75a24.46,24.46,0,0,1-24.49-24.68l18.63-225.76,22.52-272.78,9.15-110.61,47.25-572.42,34.62-419.45,25.67-311A24.91,24.91,0,0,1,2163,601.8h183.93l27.19,42.92A53.09,53.09,0,0,0,2419,669.38h354.85a54,54,0,0,0,45.29-24.66L2847,601.8h19.31s-22.88,94.88-79.09,101.21H2375.05s-92-5.57-103.85,117.51c-.06.73-.14,1.52-.23,2.36-3.94,39.94-21.67,204.73-45.11,420.44-18.19,167.66-39.83,366.11-61.08,560.62-4.33,39.57-8.64,79-12.89,117.9-11.17,102.17-22,201.21-31.94,291.84-13.09,119.7-24.57,224.71-33.16,302.93.9,8.58,6.28,18.74,26,20.77,8,.82,56,1.32,125.41,1.6,107.15.45,265.3.37,405.91.2C2812.71,2538.93,2956.09,2538.48,2956.09,2538.48Z"/><path class="cls-17" d="M2337.21,758.3H2212.84a9.37,9.37,0,0,1-9.5-10.74h0a12.42,12.42,0,0,1,12-10.75h124.37a9.38,9.38,0,0,1,9.5,10.75h0A12.42,12.42,0,0,1,2337.21,758.3Z"/><path class="cls-17" d="M2332.14,801.75H2207.76a9.37,9.37,0,0,1-9.49-10.75h0a12.41,12.41,0,0,1,12-10.75h124.38a9.36,9.36,0,0,1,9.49,10.75h0A12.4,12.4,0,0,1,2332.14,801.75Z"/><path class="cls-17" d="M2327.07,845.19H2202.69a9.36,9.36,0,0,1-9.49-10.75h0a12.4,12.4,0,0,1,12-10.74h124.38a9.37,9.37,0,0,1,9.49,10.74h0A12.41,12.41,0,0,1,2327.07,845.19Z"/><path class="cls-18" d="M3026.3,776.71c-2,34.53-22.24,64.72-50.86,81.15a97.76,97.76,0,0,1-49,13.23,89.53,89.53,0,0,1-47.41-13.23c-26.74-16.43-43.55-46.62-41.57-81.15,3-52.14,47.66-94.38,99.78-94.38S3029.28,724.57,3026.3,776.71Z"/><path class="cls-19" d="M3013.55,776.71c-2,34.53-22.24,64.72-50.85,81.15a97.8,97.8,0,0,1-49,13.23,89.56,89.56,0,0,1-47.41-13.23c-26.73-16.43-43.55-46.62-41.57-81.15,3-52.14,47.66-94.38,99.78-94.38S3016.53,724.57,3013.55,776.71Z"/><ellipse class="cls-10" cx="2920.4" cy="754.81" rx="39.28" ry="37.1" transform="translate(300.01 2248.81) rotate(-44.18)"/><path class="cls-10" d="M2962.7,857.86a97.8,97.8,0,0,1-49,13.23,89.56,89.56,0,0,1-47.41-13.23c3.82-23.28,15.58-61.81,51.75-62.55C2954.16,796.05,2961.54,834.58,2962.7,857.86Z"/><g class="cls-20"><path class="cls-21" d="M2198.44,1059.51h785.62a47.51,47.51,0,0,1,47.4,51.66L2954,2019a48.38,48.38,0,0,1-48.13,44.22H2118.49a47.52,47.52,0,0,1-47.4-51.75l79.23-907.86A48.39,48.39,0,0,1,2198.44,1059.51Z"/></g><g class="cls-22"><path class="cls-23" d="M2483.39,669.38,2436.83,703,2271,822.88,2112.43,937.46l25.67-311A24.91,24.91,0,0,1,2163,601.8h183.93l27.19,42.92A53.09,53.09,0,0,0,2419,669.38Z"/><polygon class="cls-23" points="3076.07 1085.34 3045.42 1456.6 3045.42 1456.63 1998.89 2312.72 2021.41 2039.94 3076.07 1085.34"/><polygon class="cls-23" points="3009.7 1889 2975.08 2308.5 2609.7 2563.16 2209.5 2563.16 3009.7 1889"/></g><path class="cls-24" d="M2962.48,1404.81l-37.66,407.94a38.88,38.88,0,0,1-38.7,35.3H2177.19a38.88,38.88,0,0,1-38.7-42.45l37-400.79Z"/><path class="cls-25" d="M2925,1404.81,2890.51,1779a38.9,38.9,0,0,1-38.73,35.29h-708.9a42.42,42.42,0,0,1-4.25-.22,38.72,38.72,0,0,1-.14-8.42l37-400.79Z"/><path class="cls-25" d="M2175.48,1404.8h787l-337.33-253.36a54.43,54.43,0,0,0-62.66-1.91Z"/><path class="cls-18" d="M2175.48,1404.8h787l-385.57,144.89a60.52,60.52,0,0,1-43.94-.54Z"/><g class="cls-20"><path class="cls-26" d="M2931.66,1043.24,2911.34,1245a48.12,48.12,0,0,1-47.8,43.26H2589.62L2558.53,1344a8.28,8.28,0,0,1-15.19-1.62l-15.81-54.12H2297.1a47.27,47.27,0,0,1-47.09-52.11l20.31-201.75a48.13,48.13,0,0,1,47.81-43.25h566.44A47.27,47.27,0,0,1,2931.66,1043.24Z"/><path class="cls-27" d="M2551.32,1352.5a12.59,12.59,0,0,1-12-9l-14.92-51.08H2297.1a51.49,51.49,0,0,1-51.29-56.75L2266.12,1034a52.13,52.13,0,0,1,52-47.06h566.44a51.5,51.5,0,0,1,51.29,56.76l-20.32,201.75a52.12,52.12,0,0,1-52,47H2592.1L2562.22,1346A12.35,12.35,0,0,1,2551.32,1352.5ZM2318.13,995.35a43.71,43.71,0,0,0-43.61,39.46l-20.31,201.74A43.05,43.05,0,0,0,2297.1,1284h233.6l16.7,57.16a3.91,3.91,0,0,0,3.38,2.84,4,4,0,0,0,4.06-2.1l32.3-57.9h276.4a43.7,43.7,0,0,0,43.6-39.46l20.32-201.75a43,43,0,0,0-42.89-47.46Z"/></g><path class="cls-10" d="M2464,1189.8q-1.26,9.5-12,9.49h-68.07c-3.1,0-5.43-.92-7-2.77a8.5,8.5,0,0,1-1.77-6.9,15.77,15.77,0,0,1,5.4-9.67l46.67-43.89a85.67,85.67,0,0,0,13-15.13,33.82,33.82,0,0,0,5.32-13.7q1.11-8.43-3.13-12.9t-13.19-4.48a40.65,40.65,0,0,0-14.61,2.78,84,84,0,0,0-14.89,7.61,26.48,26.48,0,0,1-3.86,2.06,9.41,9.41,0,0,1-3.69.81,5.62,5.62,0,0,1-4.9-2.87,9.75,9.75,0,0,1-1.34-6.81,11.27,11.27,0,0,1,1.61-4.65,14.36,14.36,0,0,1,3.63-3.76,73.07,73.07,0,0,1,19.77-10,68.6,68.6,0,0,1,21.62-3.67q18.45,0,28.23,9.32t7.68,25.07a51.36,51.36,0,0,1-7.37,20.51q-5.94,9.59-18.61,21.41l-35.37,33h47.29Q2465.21,1180.66,2464,1189.8Z"/><path class="cls-10" d="M2561.71,1123.62a29.65,29.65,0,0,1,12.17,14.23q3.79,9.15,2.23,21a46.48,46.48,0,0,1-26.45,36.63,55.63,55.63,0,0,1-24.44,5.29,62.11,62.11,0,0,1-21.27-3.68,48.11,48.11,0,0,1-16.86-9.94,9.51,9.51,0,0,1-3-8.42,11.82,11.82,0,0,1,3.13-6.71,7.7,7.7,0,0,1,5.65-2.78,8.65,8.65,0,0,1,3.32.63,16.87,16.87,0,0,1,3.49,2.06,57.61,57.61,0,0,0,13,7.7,36.48,36.48,0,0,0,14.15,2.69q11.82,0,18.88-5.92t8.5-16.83q1.41-10.58-4.13-16.75t-16.64-6.18a39,39,0,0,0-12.72,2,46.6,46.6,0,0,0-12.07,6.63,13.74,13.74,0,0,1-7.3,2.33,8,8,0,0,1-5.8-2.15,6.37,6.37,0,0,1-1.75-5.73l7.43-55.89a11.61,11.61,0,0,1,12.35-10.75h59.65q10.74,0,9.55,9t-11.93,9h-48l-4.52,34a41.91,41.91,0,0,1,23.25-6.45Q2553.34,1118.51,2561.71,1123.62Z"/><path class="cls-10" d="M2679.64,1189.8q-1.26,9.5-12,9.49h-60.54q-10.93,0-9.67-9.49,1.22-9.13,12.14-9.14h18.63L2639,1099l-18.6,10.56a10.28,10.28,0,0,1-4.66,1.44,6.81,6.81,0,0,1-5.94-3.23,10.06,10.06,0,0,1-1.64-7.16,10.6,10.6,0,0,1,5.73-8.06l30.05-17.2a22.17,22.17,0,0,1,10.63-3.22c3.34,0,5.9,1,7.66,3s2.4,4.84,1.93,8.42l-12.9,97.08h18.81Q2680.85,1180.66,2679.64,1189.8Z"/><path class="cls-10" d="M2787.11,1189.8q-1.26,9.5-12,9.49h-60.54q-10.93,0-9.67-9.49,1.21-9.13,12.14-9.14h18.63l10.85-81.67-18.6,10.56a10.28,10.28,0,0,1-4.67,1.44,6.81,6.81,0,0,1-5.93-3.23,10.06,10.06,0,0,1-1.64-7.16,10.6,10.6,0,0,1,5.73-8.06l30-17.2a22.23,22.23,0,0,1,10.64-3.22c3.34,0,5.9,1,7.66,3s2.4,4.84,1.92,8.42l-12.89,97.08h18.81Q2788.32,1180.66,2787.11,1189.8Z"/><path class="cls-10" d="M2567.36,1696.52a32.05,32.05,0,0,1-15.44,23.47l-5.09,44.29a16.25,16.25,0,0,1-15.69,14.1h-2.06a12.37,12.37,0,0,1-12.49-14.1l5.09-44.24c-7.2-5-11.33-13.63-10.23-23.52,1.75-15.4,15.7-28,31.15-28S2569.16,1681.12,2567.36,1696.52Z"/><path class="cls-10" d="M2881.44,1975.88H2154.76a20.91,20.91,0,0,1-20.82-23.15l1.54-14.69a21.3,21.3,0,0,1,21.14-19H2883.3a20.92,20.92,0,0,1,20.83,23.16l-1.55,14.68A21.3,21.3,0,0,1,2881.44,1975.88Z"/><path class="cls-28" d="M2409,2383.91H2111.52a41.86,41.86,0,0,1-41.77-45.33l8.19-101a42.61,42.61,0,0,1,42.41-39.12h297.52a41.85,41.85,0,0,1,41.77,45.33l-8.2,101A42.61,42.61,0,0,1,2409,2383.91Z"/><path class="cls-29" d="M2385.83,2383.91H2088.31a41.86,41.86,0,0,1-41.77-45.33l8.19-101a42.61,42.61,0,0,1,42.41-39.12h297.52a41.85,41.85,0,0,1,41.77,45.33l-8.19,101A42.62,42.62,0,0,1,2385.83,2383.91Z"/><path class="cls-30" d="M2385.83,2385.31H2088.31a43.26,43.26,0,0,1-43.18-46.84l8.2-101a44.21,44.21,0,0,1,43.81-40.42h297.52a43.26,43.26,0,0,1,43.17,46.85l-8.19,101A44.2,44.2,0,0,1,2385.83,2385.31Zm-288.69-185.44a41.38,41.38,0,0,0-41,37.82l-8.19,101a40.45,40.45,0,0,0,40.37,43.81h297.52a41.37,41.37,0,0,0,41-37.83l8.2-101a40.45,40.45,0,0,0-40.37-43.8Z"/><path class="cls-28" d="M2878.72,2383.91H2581.2a41.86,41.86,0,0,1-41.77-45.33l8.19-101a42.61,42.61,0,0,1,42.41-39.12h297.52a41.85,41.85,0,0,1,41.77,45.33l-8.19,101A42.62,42.62,0,0,1,2878.72,2383.91Z"/><path class="cls-29" d="M2855.51,2383.91H2558a41.86,41.86,0,0,1-41.77-45.33l8.19-101a42.61,42.61,0,0,1,42.41-39.12h297.52a41.85,41.85,0,0,1,41.77,45.33l-8.19,101A42.62,42.62,0,0,1,2855.51,2383.91Z"/><path class="cls-30" d="M2855.51,2385.31H2558a43.26,43.26,0,0,1-43.17-46.84l8.19-101a44.2,44.2,0,0,1,43.81-40.42h297.52a43.26,43.26,0,0,1,43.17,46.85l-8.19,101A44.2,44.2,0,0,1,2855.51,2385.31Zm-288.69-185.44a41.36,41.36,0,0,0-41,37.82l-8.2,101A40.45,40.45,0,0,0,2558,2382.5h297.52a41.37,41.37,0,0,0,41-37.83l8.2-101a40.45,40.45,0,0,0-40.37-43.8Z"/><path class="cls-31" d="M3113.81,2510.16c-30.9-6.36-107.63-27.72-107.63-27.72s-28.76-9.54-56.45,3.21c-16.84,7.77-107.38,51.7-186.27,86.18-50.94,22.29-97.05,40.67-115.31,42.81l-2.31.25c-16.94,1.92-41.46,3.63-66,5-44.61,2.56-89.42,4.14-89.42,4.14V2503.8l89.42,5.24h0l73.65,4.3s7.58-6.39,19.26-15.22h0c10.28-7.77,23.67-17.37,38-26.15,17.53-10.75,36.42-20.32,52.29-23.78,43.71-9.43,195.14-23.7,195.14-23.7s34.11-12.36,44.75-24.07,23.47-25.27,46.89-8.92,45.82,56.69,45.82,56.69,61.8,41.74,63.94,48.13S3144.72,2516.55,3113.81,2510.16Z"/><path class="cls-32" d="M3113.81,2510.16c-30.9-6.36-107.63-27.72-107.63-27.72s-28.76-9.54-56.45,3.21c-16.84,7.77-107.38,51.7-186.27,86.18a124.75,124.75,0,0,1-48.38-71.12,137.93,137.93,0,0,1-4.28-28.74c17.53-10.75,36.42-20.32,52.29-23.78,43.71-9.43,195.14-23.7,195.14-23.7s34.11-12.36,44.75-24.07,23.47-25.27,46.89-8.92c11.2,7.83,22.12,21.08,30.51,32.79a274,274,0,0,1,15.31,23.9s61.8,41.74,63.94,48.13S3144.72,2516.55,3113.81,2510.16Z"/><path class="cls-33" d="M3080.38,2424.29a68.9,68.9,0,0,1-17.82-9.65c-23.25-17.59-35.46.25-69.07,23.25s-121,26.26-181.11,27.24c-49.23.82-85.71,26.37-97.3,35.58a137.93,137.93,0,0,1-4.28-28.74c17.53-10.75,36.42-20.32,52.29-23.78,43.71-9.43,195.14-23.7,195.14-23.7s34.11-12.36,44.75-24.07,23.47-25.27,46.89-8.92C3061.07,2399.33,3072,2412.58,3080.38,2424.29Z"/><path class="cls-34" d="M2659.43,2562.91c.71,19.73-7.85,40.44-13.59,52-16.94,1.92-41.46,3.63-66,5V2509h0l73.65,4.3s7.58-6.39,19.26-15.22h0S2658.34,2533.47,2659.43,2562.91Z"/><path class="cls-31" d="M2703.68,2199.69s-15.57,22-17.28,47.85c-.93,13.73-12.78,105.29-24.85,191.67-10.73,76.39-21.56,148.69-25.22,159.64-7.77,23.3-44.95,31-69.52,34.53S2513.75,2503,2513.75,2503h42.31s4.3.85,4.3-18.12c0-8.11,1.19-33.13,2.54-59.16.17-3.47.39-6.87.7-10.28A344.78,344.78,0,0,1,2598.44,2290l33.55-67.55s10.39-27.16,9.52-51.14-15.54-58.51,25.89-61.08c16.16-1,29.3-1.26,39.35-1.15a81.74,81.74,0,0,0,43.65-12.07c17.31-10.59,40.87-22.8,49.93-17C2827.07,2097.1,2733.88,2170,2703.68,2199.69Z"/><path class="cls-34" d="M2572,2525.45c-13.15-2.11-34.54-5-34.54-5l-5-17.45h23.56s4.3.85,4.3-18.12c0-8.11,1.19-33.13,2.54-59.16.17-3.47.39-6.87.7-10.28l9.06-.84s-1.46,54.23,0,76.75S2585.16,2527.53,2572,2525.45Z"/><path class="cls-32" d="M2703.68,2199.69s-15.57,22-17.28,47.85c-.93,13.73-12.78,105.29-24.85,191.67-42.39,2.33-70.59-6.67-89-17.68a96.65,96.65,0,0,1-9-6.05A344.78,344.78,0,0,1,2598.44,2290l33.55-67.55s10.39-27.16,9.52-51.14c-.76-21.31-12.44-51,14.1-59.1a50.85,50.85,0,0,1,11.79-2c7.57-.47,14.49-.78,20.74-1h0c7.07-.2,13.26-.23,18.58-.17a81.74,81.74,0,0,0,43.65-12.07c17.31-10.59,40.87-22.8,49.93-17C2827.07,2097.1,2733.88,2170,2703.68,2199.69Z"/><path class="cls-33" d="M2620.06,2279.88c-35.35,43.51-46.38,132.22-47.48,141.65l-.09.82c-7-3-8.89-6.87-8.89-6.87A344.78,344.78,0,0,1,2598.44,2290l33.55-67.55s10.39-27.16,9.52-51.14c-.76-21.31-12.44-51,14.1-59.1a2.34,2.34,0,0,1-1,.92c-14.39,7.66-2.88,41.18,4.86,66.15S2657.44,2233.89,2620.06,2279.88Z"/><path class="cls-33" d="M2800.33,2080.05c-28.6,3.26-38.47,34.08-65.94,35s-46.25-5.77-46.25-5.77v0h0c7.07-.2,13.26-.23,18.58-.17a81.74,81.74,0,0,0,43.65-12.07C2767.71,2086.46,2791.27,2074.25,2800.33,2080.05Z"/><path class="cls-35" d="M1789,2012.65s-39.65-6.38-64.71,19.13c-28.87,29.38-43.49,83.6-35,153.74,0,0-32.59,164.38,63.06,177.84s141.7-158,141.7-158Z"/><path class="cls-36" d="M1699,2589.22s-30.77-4.74-46.55,0-14.2,29.43-14.2,29.43l78.89,9.22Z"/><path class="cls-37" d="M1766.88,2040.33s-7.59-19-39.86,13.28-35.21,108.41-23.11,136.26c0,0-15.93,145.11,75.1,140.43s76.12-115.67,76.12-115.67Z"/><path class="cls-38" d="M1865.14,2293.21s-55-13.94-79.22,21.27c-22.2,32.3-25.89,195.47-26.35,222.21a5.82,5.82,0,0,1-3.45,5.22L1684,2574.14l11.73,54.27h183.38Z"/><path class="cls-31" d="M1901.17,2271.18a51.39,51.39,0,0,0-11.09,10.47c-22,26.75-42.2,84-47.87,101a1.9,1.9,0,0,1-3.58.08c-7.52-20.16-9.34-53.34-9.34-53.34l-11.15-24-21.44-46.13c-.71-33.32,60.23-51,60.23-51Z"/><path class="cls-34" d="M1901.17,2271.18a51.39,51.39,0,0,0-11.09,10.47c-13.85-2.93-21.37-8.1-25-11.55a3.81,3.81,0,0,0-5.73.62c-4.55,6.53-14.58,19.62-28.35,30.07-5.12,3.88-9.34,5-12.81,4.56l-21.44-46.13c-.71-33.32,60.23-51,60.23-51Z"/><path class="cls-31" d="M1866.43,2190.63c-16.78,41.12-44.16,80.74-88.72,80.54-41.08-.17-57.62-28-63.3-61.47-2.43-14.27-2.9-29.55-2.43-44.16.51-16.63,2.2-32.39,3.52-44.76,5.17-48.75,33.16-66.4,33.16-66.4,29.59-16.33,56.23-10.08,78,4.15C1869.91,2086.8,1885.93,2142.79,1866.43,2190.63Z"/><path class="cls-39" d="M1751.77,2214.63c-7,0-11-1.27-12.65-4-2-3.39.31-7.62,2.58-11.71.36-.65.72-1.3,1.06-1.93,3.62-6.84,7.31-24.2,7.35-24.37a1.63,1.63,0,0,1,2-1.27,1.64,1.64,0,0,1,1.26,2c-.15.73-3.83,18-7.66,25.22-.35.66-.72,1.32-1.09,2-1.73,3.12-3.7,6.66-2.63,8.42.57,1,2.74,2.55,11,2.37a1.61,1.61,0,0,1,1.68,1.61,1.65,1.65,0,0,1-1.61,1.67Z"/><path class="cls-39" d="M1734.13,2171.09c3.54-1.18,5.17-5.88,3.63-10.53s-5.62-7.43-9.18-6.29a5.84,5.84,0,0,0-3.42,3.33,5.73,5.73,0,0,1-3.88-2.41s1.08,3.41,3.17,5.09a10.35,10.35,0,0,0,.5,4.52C1726.49,2169.45,1730.59,2172.26,1734.13,2171.09Z"/><path class="cls-39" d="M1783.85,2171.09c-3.54-1.18-5.18-5.88-3.63-10.53s5.62-7.43,9.18-6.29a5.84,5.84,0,0,1,3.42,3.33,5.73,5.73,0,0,0,3.88-2.41s-1.08,3.41-3.17,5.09a10.5,10.5,0,0,1-.5,4.52C1791.49,2169.45,1787.39,2172.26,1783.85,2171.09Z"/><path class="cls-40" d="M1773,2131.25s9-14.3,24.87-7.44,1.7,5.57-6.8,6.7S1773,2137.45,1773,2131.25Z"/><path class="cls-40" d="M1749.37,2128.62s-6.64-12.27-19.3-7.74-1.48,4.42,5.16,5.92S1749.23,2133.69,1749.37,2128.62Z"/><path class="cls-39" d="M1765.75,2239.6a14.41,14.41,0,0,1-6.07-1.12,1.64,1.64,0,0,1,1.45-2.94c.41.19,9.27,4.13,23.4-7.41a1.64,1.64,0,1,1,2.08,2.54C1777.7,2238,1770.47,2239.6,1765.75,2239.6Z"/><ellipse class="cls-41" cx="1818.71" cy="2189.87" rx="27.62" ry="24.83" transform="translate(-967.49 2773.27) rotate(-62.12)"/><path class="cls-41" d="M1720.77,2201.49a29.45,29.45,0,0,1-6.36,8.21c-2.43-14.27-2.9-29.55-2.43-44.16C1723.91,2172.07,1727.87,2188.06,1720.77,2201.49Z"/><path class="cls-42" d="M1996.22,2289.81a31.79,31.79,0,0,1-6.39,4.56l-.45.26c-20.26,10.64-61.55,9.2-104.05-17.71s-21.67-99.18-21.67-99.18c-22.21-2.82-36.45-11.91-45.94-23.7v0l-.14-.17c-19.14-24-18.8-58.74-25.41-73.88-9.94-22.68-29.75-13.45-29.75-13.45-11.32,1.63-15.68-3.32-17.2-6.39,0,0,0-.06,0-.08a7.81,7.81,0,0,1-.76-2.23.18.18,0,0,1,0-.08c0-.57.06-1.13.12-1.69,2-25.61,25-43.94,48.69-51.25,85.5-26.52,142.86,68.3,144.19,109.17,1.43,43.23,17.73,87.87,47.87,113.79C2011.7,2250.47,2010.55,2276.56,1996.22,2289.81Z"/><path class="cls-43" d="M1989.83,2294.37l-.45.26c-20.26,10.64-61.55,9.2-104.05-17.71s-21.67-99.18-21.67-99.18c-22.21-2.82-36.45-11.91-45.94-23.7v0l-.14-.17c-19.14-24-18.8-58.74-25.41-73.88-9.94-22.68-29.75-13.45-29.75-13.45-11.32,1.63-15.68-3.32-17.2-6.39,0,0,0-.06,0-.08-.42-1.21-.67-1.95-.76-2.23a.18.18,0,0,1,0-.08s23-53,97-41.94,80.3,107.83,77.4,142.13-4.31,98,35.1,113.26C1976.8,2280,1987.94,2288.27,1989.83,2294.37Z"/><ellipse class="cls-31" cx="1875.49" cy="2184.92" rx="32.37" ry="25.17" transform="translate(-932.89 2820.82) rotate(-62.12)"/><path class="cls-36" d="M1863.72,2201.34a1.63,1.63,0,0,1-1.63-1.55c-1.35-22.46,15.83-29.88,16-29.95a1.63,1.63,0,0,1,2.14.88,1.65,1.65,0,0,1-.87,2.15c-.62.26-15.2,6.66-14,26.73a1.64,1.64,0,0,1-1.54,1.73Z"/><path class="cls-44" d="M2123.45,2493.42s95.52-53.36,167.79-55.48c70-2.06,172.56,54.12,242.68,55.52a10.22,10.22,0,0,1,9.35,6.52c7.71,19.95,29.17,81.91,22.16,136.88H2127a3.54,3.54,0,0,1-3.54-3.53Z"/><path class="cls-31" d="M1779.64,2644.8H1663.45v-43s16,5.81,27.73,5.66,88.46-18.28,88.46-18.28Z"/><path class="cls-25" d="M2125.49,2628.71c-1.18,4.5-2,6.95-2,6.95s-63.49,4-85.36-2.25c-9.34-2.64-37.52-13.28-44.41-15.87-1-.4-1.55-.59-1.55-.59-14.27,20.51-48.19,27.86-48.19,27.86H1763.12c-23.39-24.4-15.25-66.06-15.25-66.06l90.43-19.3c1-18.27,18.26-16.24,18.26-16.24s-3.46-52.86-1.4-113.88a.93.93,0,0,1,0-.23c2.79-82.74,15.76-180.38,61.33-181.53,10.89-.28,21.7,3.12,32.26,9.23h0c66.48,38.36,123.17,182.77,123.17,182.77,3.4,8.25,51.5,53.85,51.5,53.85C2142.1,2554.21,2130.58,2609.71,2125.49,2628.71Z"/><path class="cls-38" d="M2125.49,2628.71c-1.18,4.5-2,6.95-2,6.95s-63.49,4-85.36-2.25c-9.34-2.64-37.52-13.28-44.41-15.87l12.55-28.32s23.87,28,51.87,34.85C2078.94,2629.19,2110.63,2629.1,2125.49,2628.71Z"/><path class="cls-38" d="M2031.2,2479.47c1.45-1.37,8.81-8.63,16-22.16a1,1,0,0,1,1.93.56c-1.27,10.47-5.73,34.28-21,55.32a1,1,0,0,1-1.86-.74l4.69-32.39A1,1,0,0,1,2031.2,2479.47Z"/><path class="cls-45" d="M2040.24,2423.5c-.76,6.39-18.89,156.91-46.75,194.46a1.64,1.64,0,0,1-1.35.67,1.65,1.65,0,0,1-1.35-2.67c9.59-12.95,18.12-40.42,25.13-70.67v0a1.2,1.2,0,0,0,.06-.23c3-12.72,5.63-25.92,8-38.72l.08-.43c4.87-24.06,11-55.5,15.85-83.53A1.54,1.54,0,0,1,2040.24,2423.5Z"/><path class="cls-45" d="M1856.22,2543.18a1.62,1.62,0,0,1-1.06.36,1.69,1.69,0,0,1-1.3-.59c-28.06-34-28.71-56.6-29.21-74.75-.2-6.81-.37-12.67-1.92-18.3-3.83-13.87-10.21-34.81-14.16-47.53-.11-.37-.19-.71-.3-1-1.55-5.51-.4-5.4-.4-5.4L1826,2449c1.66,6,1.86,12.36,2,19.09.51,17.64,1.13,39.6,28.43,72.69A1.67,1.67,0,0,1,1856.22,2543.18Z"/><path class="cls-46" d="M1672.91,2647.42H1349.57a9,9,0,0,1-8.8-7l-47.23-207.76a9,9,0,0,1,8.8-11h323.35a9,9,0,0,1,8.79,7l47.23,207.76A9,9,0,0,1,1672.91,2647.42Z"/><path class="cls-47" d="M1664.64,2647.43H1341.28a9,9,0,0,1-8.78-7l-47.23-207.74a9,9,0,0,1,8.78-11h323.36a9,9,0,0,1,8.78,7l28.49,125.25,18.74,82.49A9,9,0,0,1,1664.64,2647.43Z"/><path class="cls-48" d="M1664.64,2647.43H1341.28a9,9,0,0,1-8.78-7l-47.23-207.74a9,9,0,0,1,8.78-11h43.71c26.18,42,108,135.46,316.92,132.28l18.74,82.49A9,9,0,0,1,1664.64,2647.43Z"/><g class="cls-49"><ellipse class="cls-50" cx="1472.78" cy="2537.37" rx="17.19" ry="26" transform="translate(-439.45 312.36) rotate(-10.54)"/></g><path class="cls-51" d="M1664.63,2648.82H1341.28a10.38,10.38,0,0,1-10.17-8.12L1283.88,2433a10.44,10.44,0,0,1,10.17-12.74H1617.4a10.38,10.38,0,0,1,10.17,8.12l47.23,207.75a10.43,10.43,0,0,1-10.17,12.74ZM1294.05,2423a7.62,7.62,0,0,0-7.42,9.3l47.23,207.75a7.57,7.57,0,0,0,7.42,5.93h323.35a7.62,7.62,0,0,0,7.43-9.3L1624.83,2429a7.59,7.59,0,0,0-7.43-5.93Z"/><rect class="cls-52" x="1340.84" y="2647.42" width="413.81" height="28.08" rx="8.72"/><path class="cls-51" d="M1745.93,2676.91H1349.57a10.14,10.14,0,0,1-10.13-10.13v-10.64a10.14,10.14,0,0,1,10.13-10.13h396.36a10.14,10.14,0,0,1,10.13,10.13v10.64A10.14,10.14,0,0,1,1745.93,2676.91Zm-396.36-28.09a7.33,7.33,0,0,0-7.32,7.32v10.64a7.32,7.32,0,0,0,7.32,7.31h396.36a7.32,7.32,0,0,0,7.32-7.31v-10.64a7.33,7.33,0,0,0-7.32-7.32Z"/><path class="cls-45" d="M1916.51,2247.57c10.89-.28,21.7,3.12,32.26,9.23-1.21-.59-28.71-14-45.23-2.08-16.89,12.13-39.63,58.76-48.36,174.38C1858,2346.36,1870.94,2248.72,1916.51,2247.57Z"/><path class="cls-45" d="M1948.79,2256.8v0l0,0Z"/><path class="cls-53" d="M1984.31,1320.88l-22.82-35.43,13.85-8.92a9.84,9.84,0,0,0,3-13.6l-8.7-13.48a9.78,9.78,0,0,0-13.56-2.93l-4,2.59-9.82,6.34-.08-.12-19.2-29.86,13.82-8.89a9.87,9.87,0,0,0,3-13.62L1931,1189.5a9.82,9.82,0,0,0-13.54-2.93l-4,2.59-9.85,6.36-.08-.14L1811,1051.67A131.65,131.65,0,0,0,1640.8,854.15l-.25.17a131.66,131.66,0,0,0,109.54,236.59l173.29,269.18a9.46,9.46,0,0,0,4.87,3.8l40.78,13.48a9.27,9.27,0,0,0,12.13-7.79l4.56-42.7A9.06,9.06,0,0,0,1984.31,1320.88ZM1704.52,953.14a41.46,41.46,0,0,1-4,2.28,47,47,0,0,1-48.6-80.1c.56-.43,1.12-.82,1.71-1.19a47,47,0,0,1,50.86,79Z"/><path class="cls-54" d="M1978.77,1324.23,1956,1288.8l13.85-8.92a9.85,9.85,0,0,0,3-13.6l-8.69-13.48a9.76,9.76,0,0,0-12.08-3.69,11.86,11.86,0,0,0-1.49.79l-8.41,5.43-5.44,3.49-19.28-30,13.82-8.89a9.89,9.89,0,0,0,3-13.63l-8.67-13.45a9.78,9.78,0,0,0-12-3.69,8.92,8.92,0,0,0-1.49.79l-8.44,5.43-5.43,3.49-92.57-143.82a128.13,128.13,0,1,0-55.42,35.86l173.29,269.18a9.46,9.46,0,0,0,4.87,3.8l40.78,13.48a9.36,9.36,0,0,0,4.64.31,9.11,9.11,0,0,0,2-4.76l4.55-42.69A9.27,9.27,0,0,0,1978.77,1324.23ZM1699,956.49a47,47,0,1,1-50.86-79,35.22,35.22,0,0,1,3.8-2.19,46.95,46.95,0,0,1,48.6,80.1C1700.05,955.81,1699.54,956.15,1699,956.49Z"/><path class="cls-10" d="M1934.28,1311.88a1.78,1.78,0,0,1-1.51-.83L1780,1073.75a1.79,1.79,0,0,1,3-1.94l152.75,237.3a1.8,1.8,0,0,1-.54,2.48A1.74,1.74,0,0,1,1934.28,1311.88Z"/><polygon class="cls-55" points="3029.45 360 3047.65 417.72 3247.14 453.48 3029.45 360"/><polygon class="cls-56" points="3047.65 417.72 3029.45 465.39 3247.14 453.48 3047.65 417.72"/><polygon class="cls-57" points="3029.45 466 3082.15 452.85 3247.14 453.78 3029.45 466"/><polygon class="cls-55" points="3082.15 452.85 3113.26 523.11 3247.14 453.78 3082.15 452.85"/><rect class="cls-2" x="1133.87" y="1477.87" width="655.6" height="498.08" rx="47.65"/><g class="cls-49"><path class="cls-58" d="M1836.62,1461.46V1893.6a33,33,0,0,1-33,33H1214a33,33,0,0,1-33-33V1461.46a33,33,0,0,1,33-33h589.64A33,33,0,0,1,1836.62,1461.46Z"/></g><path class="cls-10" d="M1836.62,1461.46V1508H1181v-46.58a33,33,0,0,1,33-33h589.64A33,33,0,0,1,1836.62,1461.46Z"/><path class="cls-2" d="M1838,1509.45H1179.58v-48a34.42,34.42,0,0,1,34.4-34.36h589.64a34.42,34.42,0,0,1,34.4,34.36Zm-655.62-2.81h652.81v-45.18a31.61,31.61,0,0,0-31.59-31.55H1214a31.61,31.61,0,0,0-31.58,31.55Z"/><rect class="cls-10" x="1231.03" y="1578.95" width="114.14" height="103.34" rx="7.75"/><rect class="cls-10" x="1377.3" y="1578.95" width="114.14" height="103.34" rx="7.75"/><rect class="cls-10" x="1523.57" y="1578.95" width="114.14" height="103.34" rx="7.75"/><rect class="cls-10" x="1669.84" y="1578.95" width="114.14" height="103.34" rx="7.75"/><path class="cls-11" d="M1319.17,1662q0,5.64-6.39,5.64h-40.4a5.77,5.77,0,0,1-4.36-1.65,5.65,5.65,0,0,1-1.6-4.1,8.11,8.11,0,0,1,2.45-5.74l24.24-26a41.78,41.78,0,0,0,6.54-9,17.73,17.73,0,0,0,2.08-8.13q0-5-2.88-7.66t-8.18-2.65a22.62,22.62,0,0,0-8.46,1.64,42.69,42.69,0,0,0-8.24,4.52,14.11,14.11,0,0,1-2.12,1.23,5.29,5.29,0,0,1-2.13.47,3.89,3.89,0,0,1-3.14-1.7,6.39,6.39,0,0,1-1.33-4,6.1,6.1,0,0,1,.59-2.76,7.14,7.14,0,0,1,1.86-2.24,37.05,37.05,0,0,1,11-5.9,38.07,38.07,0,0,1,12.55-2.18q11,0,17.49,5.53t6.54,14.89a27.59,27.59,0,0,1-2.76,12.18,54.38,54.38,0,0,1-9.36,12.7l-18.4,19.57h28.07Q1319.17,1656.53,1319.17,1662Z"/><path class="cls-11" d="M1452.57,1622.66a21.34,21.34,0,0,1,8.35,8.45,25.53,25.53,0,0,1,3,12.45,24.93,24.93,0,0,1-3.35,13,22.83,22.83,0,0,1-9.47,8.77,30.42,30.42,0,0,1-14.08,3.14,39.54,39.54,0,0,1-12.93-2.18,33.88,33.88,0,0,1-10.79-5.9,6.45,6.45,0,0,1-2.44-5,6.19,6.19,0,0,1,1.32-4,4,4,0,0,1,3.14-1.65,5.7,5.7,0,0,1,2,.37,12,12,0,0,1,2.23,1.23,40.58,40.58,0,0,0,8.3,4.57,23.27,23.27,0,0,0,8.61,1.59q7,0,10.74-3.51t3.73-10c0-4.18-1.27-7.5-3.78-9.94s-6-3.67-10.37-3.67a21.71,21.71,0,0,0-7.39,1.17,23.12,23.12,0,0,0-6.64,3.93,7.28,7.28,0,0,1-4.15,1.38,5.37,5.37,0,0,1-3.62-1.27,4.26,4.26,0,0,1-1.49-3.4V1599a6.31,6.31,0,0,1,1.71-4.68,6.46,6.46,0,0,1,4.78-1.7h35.41c4.26,0,6.38,1.77,6.38,5.32s-2.12,5.31-6.38,5.31h-28.5v20.21a22.5,22.5,0,0,1,13.29-3.83A24.78,24.78,0,0,1,1452.57,1622.66Z"/><path class="cls-11" d="M1606.46,1662q0,5.64-6.38,5.64h-35.94q-6.5,0-6.49-5.64,0-5.42,6.49-5.42h11.06V1608l-10.21,6.27a5.46,5.46,0,0,1-2.66.85,4.65,4.65,0,0,1-3.77-1.91A6.61,6.61,0,0,1,1557,1609a5.34,5.34,0,0,1,2.77-4.79l16.48-10.21a11.82,11.82,0,0,1,6.06-1.91,6.5,6.5,0,0,1,4.79,1.8,6.8,6.8,0,0,1,1.81,5v57.64h11.16C1604.34,1656.53,1606.46,1658.34,1606.46,1662Z"/><path class="cls-11" d="M1754.25,1662q0,5.64-6.38,5.64h-35.94q-6.5,0-6.49-5.64,0-5.42,6.49-5.42H1723V1608l-10.21,6.27a5.49,5.49,0,0,1-2.66.85,4.68,4.68,0,0,1-3.78-1.91,6.66,6.66,0,0,1-1.54-4.25,5.32,5.32,0,0,1,2.77-4.79l16.48-10.21a11.82,11.82,0,0,1,6.06-1.91,6.51,6.51,0,0,1,4.79,1.8,6.79,6.79,0,0,1,1.8,5v57.64h11.17Q1754.25,1656.53,1754.25,1662Z"/><path class="cls-10" d="M1411,1782.69a6,6,0,0,1,3.82,1.36,4.17,4.17,0,0,1,1.7,3.39,5.51,5.51,0,0,1-.51,2.13l-23.53,50.61a5.6,5.6,0,0,1-2.33,2.51,6.77,6.77,0,0,1-6.71,0,5.57,5.57,0,0,1-2.34-2.51l-23.44-50.61a5.41,5.41,0,0,1-.51-2,4.21,4.21,0,0,1,1.74-3.48,6.23,6.23,0,0,1,3.95-1.36,5.23,5.23,0,0,1,2.68.72,4.82,4.82,0,0,1,1.91,2.16L1387,1829l19.53-43.4A4.65,4.65,0,0,1,1411,1782.69Z"/><path class="cls-10" d="M1426.4,1841.71a5.06,5.06,0,0,1-1.4-3.82v-49.51a5,5,0,0,1,1.4-3.82,5.29,5.29,0,0,1,3.86-1.36h30.66a5.87,5.87,0,0,1,3.82,1.1,3.81,3.81,0,0,1,1.36,3.14,4,4,0,0,1-1.36,3.27,5.71,5.71,0,0,1-3.82,1.15H1435.7v16.48h23.52a5.87,5.87,0,0,1,3.82,1.1,3.9,3.9,0,0,1,1.36,3.23,3.82,3.82,0,0,1-1.36,3.14,5.93,5.93,0,0,1-3.82,1.1H1435.7v17.5h25.22a5.77,5.77,0,0,1,3.82,1.14,4,4,0,0,1,1.36,3.27,3.79,3.79,0,0,1-1.36,3.14,5.87,5.87,0,0,1-3.82,1.11h-30.66A5.33,5.33,0,0,1,1426.4,1841.71Z"/><path class="cls-10" d="M1525.38,1839.16a4,4,0,0,1-1.57,3.23,5.69,5.69,0,0,1-3.7,1.27,5.52,5.52,0,0,1-2.59-.64,5.61,5.61,0,0,1-2.08-1.9L1504.15,1824a11.06,11.06,0,0,0-3.61-3.82,9.84,9.84,0,0,0-5-1.1h-8.32v19a5.54,5.54,0,0,1-1.45,4,5.18,5.18,0,0,1-3.9,1.49,5.33,5.33,0,0,1-4-1.49,5.44,5.44,0,0,1-1.49-4v-49.68a5.08,5.08,0,0,1,1.4-3.82,5.31,5.31,0,0,1,3.87-1.36H1503q10.18,0,15.5,4.54t5.3,13.12a16.55,16.55,0,0,1-4,11.42q-3.94,4.47-11.16,5.74a10.64,10.64,0,0,1,4.33,2.12,18.71,18.71,0,0,1,3.65,4.25l7.73,11.8A5.37,5.37,0,0,1,1525.38,1839.16Zm-14.86-30.87c1.92-1.55,2.88-4,2.88-7.17s-1-5.68-2.88-7.18-5-2.25-9.09-2.25h-14.27v18.94h14.27Q1507.63,1810.63,1510.52,1808.29Z"/><path class="cls-10" d="M1538.41,1842.05a5.48,5.48,0,0,1-1.48-4v-49.85a5.11,5.11,0,0,1,5.43-5.44,5.44,5.44,0,0,1,4,1.49,5.35,5.35,0,0,1,1.49,4v49.85a5.49,5.49,0,0,1-1.49,4,5.35,5.35,0,0,1-4,1.53A5.26,5.26,0,0,1,1538.41,1842.05Z"/><path class="cls-10" d="M1563.72,1842.05a5.49,5.49,0,0,1-1.49-4v-49.68a5.08,5.08,0,0,1,1.4-3.82,5.33,5.33,0,0,1,3.87-1.36h29.81q5.18,0,5.18,4.41t-5.18,4.33H1573v16.31h22.59q5.17,0,5.18,4.42c0,2.88-1.73,4.33-5.18,4.33H1573v21.06a5.55,5.55,0,0,1-1.45,4,5.1,5.1,0,0,1-3.9,1.53A5.26,5.26,0,0,1,1563.72,1842.05Z"/><path class="cls-10" d="M1653.1,1782.77a4.87,4.87,0,0,1,3.48,1.49,4.74,4.74,0,0,1,1.53,3.52,5,5,0,0,1-1.27,3.23l-19.28,23.52v23.53a5.32,5.32,0,0,1-1.53,4.07,5.44,5.44,0,0,1-3.91,1.45,5.55,5.55,0,0,1-4-1.45,5.32,5.32,0,0,1-1.53-4.07v-23.53L1607.33,1791a5,5,0,0,1-1.28-3.23,4.74,4.74,0,0,1,1.53-3.52,4.87,4.87,0,0,1,3.48-1.49,4.58,4.58,0,0,1,3.65,1.87l17.41,21.57,17.33-21.57A4.6,4.6,0,0,1,1653.1,1782.77Z"/></g></svg>